<svg width="32" height="32" viewBox="0 0 32 32" fill="none" xmlns="http://www.w3.org/2000/svg">
<path fill-rule="evenodd" clip-rule="evenodd" d="M16 3C8.8175 3 3 8.8175 3 16C3 21.7525 6.72125 26.6112 11.8888 28.3337C12.5387 28.4475 12.7825 28.0575 12.7825 27.7162C12.7825 27.4075 12.7663 26.3838 12.7663 25.295C9.5 25.8962 8.655 24.4987 8.395 23.7675C8.24875 23.3937 7.615 22.24 7.0625 21.9312C6.6075 21.6875 5.9575 21.0863 7.04625 21.07C8.07 21.0537 8.80125 22.0125 9.045 22.4025C10.215 24.3687 12.0838 23.8162 12.8313 23.475C12.945 22.63 13.2863 22.0612 13.66 21.7362C10.7675 21.4112 7.745 20.29 7.745 15.3175C7.745 13.9037 8.24875 12.7337 9.0775 11.8237C8.9475 11.4987 8.4925 10.1662 9.2075 8.37875C9.2075 8.37875 10.2962 8.0375 12.7825 9.71125C13.8225 9.41875 14.9275 9.2725 16.0325 9.2725C17.1375 9.2725 18.2425 9.41875 19.2825 9.71125C21.7688 8.02125 22.8575 8.37875 22.8575 8.37875C23.5725 10.1662 23.1175 11.4987 22.9875 11.8237C23.8162 12.7337 24.32 13.8875 24.32 15.3175C24.32 20.3062 21.2812 21.4112 18.3888 21.7362C18.86 22.1425 19.2663 22.9225 19.2663 24.1413C19.2663 25.88 19.25 27.2775 19.25 27.7162C19.25 28.0575 19.4937 28.4638 20.1438 28.3337C25.2788 26.6112 29 21.7362 29 16C29 8.8175 23.1825 3 16 3Z" fill="#3DCFB6"/>
</svg>
