<svg width="32" height="32" viewBox="0 0 32 32" fill="none" xmlns="http://www.w3.org/2000/svg">
<path d="M25.0488 3H6.95125C4.76888 3 3 4.76888 3 6.95125V25.0494C3 27.2311 4.76888 29 6.95125 29H25.0488C27.2311 29 29 27.2311 29 25.0494V6.95125C29 4.76888 27.2311 3 25.0488 3ZM13.0012 26.3843H9.66446V15.6506H13.0012V26.3843ZM13.272 12.4667C13.2654 12.5299 13.2564 12.5925 13.2438 12.6551C13.2311 12.7177 13.2161 12.7791 13.1974 12.8399C13.1788 12.9007 13.1577 12.9609 13.133 13.0193C13.1089 13.0782 13.0819 13.1354 13.0518 13.192C13.0217 13.248 12.9892 13.3027 12.9537 13.3557C12.9187 13.4081 12.8808 13.4592 12.8399 13.5086C12.8002 13.5579 12.7574 13.6049 12.7123 13.6494C12.6672 13.6946 12.6202 13.7373 12.5715 13.7776C12.5221 13.8179 12.471 13.8559 12.418 13.8914C12.365 13.9269 12.3109 13.9594 12.2543 13.9895C12.1983 14.019 12.1405 14.046 12.0822 14.0707C12.0238 14.0948 11.9636 14.1165 11.9028 14.1345C11.842 14.1532 11.78 14.1688 11.718 14.1809C11.6554 14.1935 11.5922 14.2031 11.529 14.2091C11.4658 14.2152 11.4026 14.2182 11.3389 14.2182C11.2751 14.2182 11.2119 14.2152 11.1487 14.2091C11.0855 14.2031 11.0223 14.1935 10.9597 14.1809C10.8977 14.1688 10.8363 14.1532 10.7749 14.1345C10.7141 14.1165 10.6545 14.0948 10.5955 14.0707C10.5366 14.046 10.4794 14.019 10.4234 13.9895C10.3674 13.9594 10.3127 13.9269 10.2597 13.8914C10.2067 13.8559 10.1556 13.8179 10.1068 13.7776C10.0575 13.7373 10.0105 13.6946 9.96539 13.6494C9.92025 13.6049 9.87812 13.5579 9.8372 13.5086C9.79747 13.4592 9.75955 13.4081 9.72404 13.3557C9.68853 13.3027 9.65603 13.248 9.62594 13.192C9.59585 13.1354 9.56876 13.0782 9.54469 13.0193C9.52001 12.9609 9.49895 12.9007 9.48029 12.8399C9.46163 12.7791 9.44658 12.7177 9.43395 12.6551C9.42131 12.5925 9.41228 12.5299 9.40626 12.4667C9.39964 12.4036 9.39663 12.3398 9.39663 12.276C9.39663 12.2122 9.39964 12.149 9.40626 12.0858C9.41228 12.0226 9.42131 11.96 9.43395 11.8974C9.44658 11.8354 9.46163 11.7734 9.48029 11.7126C9.49895 11.6518 9.52001 11.5916 9.54469 11.5327C9.56876 11.4743 9.59585 11.4171 9.62594 11.3611C9.65603 11.3045 9.68853 11.2504 9.72404 11.1974C9.75955 11.1444 9.79747 11.0933 9.8372 11.0439C9.87812 10.9952 9.92025 10.9482 9.96539 10.9031C10.0105 10.858 10.0575 10.8152 10.1068 10.7749C10.1556 10.7346 10.2067 10.6967 10.2597 10.6618C10.3127 10.6262 10.3674 10.5931 10.4234 10.563C10.4794 10.533 10.5366 10.5065 10.5955 10.4818C10.6545 10.4571 10.7141 10.4361 10.7749 10.4174C10.8363 10.3993 10.8977 10.3837 10.9597 10.3711C11.0223 10.359 11.0855 10.3494 11.1487 10.3434C11.2119 10.3367 11.2751 10.3337 11.3389 10.3337C11.4026 10.3337 11.4658 10.3367 11.529 10.3434C11.5922 10.3494 11.6554 10.359 11.718 10.3711C11.78 10.3837 11.842 10.3993 11.9028 10.4174C11.9636 10.4361 12.0238 10.4571 12.0822 10.4818C12.1405 10.5065 12.1983 10.533 12.2543 10.563C12.3109 10.5931 12.365 10.6262 12.418 10.6618C12.471 10.6967 12.5221 10.7346 12.5715 10.7749C12.6202 10.8152 12.6672 10.858 12.7123 10.9031C12.7574 10.9482 12.8002 10.9952 12.8399 11.0439C12.8808 11.0933 12.9187 11.1444 12.9537 11.1974C12.9892 11.2504 13.0217 11.3045 13.0518 11.3611C13.0819 11.4171 13.1089 11.4743 13.133 11.5327C13.1577 11.5916 13.1788 11.6518 13.1974 11.7126C13.2161 11.7734 13.2311 11.8354 13.2438 11.8974C13.2564 11.96 13.2654 12.0226 13.272 12.0858C13.2781 12.149 13.2811 12.2128 13.2811 12.276C13.2811 12.3392 13.2781 12.4036 13.272 12.4667ZM25.4773 20.2356V26.3843H22.1514C22.1514 26.3843 22.1405 20.8345 22.1405 20.5191C22.1405 20.2037 21.9937 19.4592 21.9937 19.4592C21.6055 18.1159 20.2519 18.3524 20.2519 18.3524C19.0975 18.3578 18.7304 19.2492 18.7304 19.2492C18.3632 19.9732 18.4132 21.3653 18.4132 21.3653V26.3843H15.0999V15.6506H18.276V17.1318C18.3181 17.118 18.3458 17.0987 18.3458 17.0987C20.2061 14.2723 23.6338 15.8113 23.6338 15.8113C25.7186 16.7623 25.4773 20.2356 25.4773 20.2356Z" fill="#3DCFB6"/>
</svg>
