<svg width="22" height="27" viewBox="0 0 22 27" fill="none" xmlns="http://www.w3.org/2000/svg">
<path d="M11.1664 26.588C10.9035 26.588 10.6424 26.5435 10.383 26.4547C10.1239 26.3658 9.89437 26.225 9.69437 26.0323C8.59059 25.025 7.49059 23.9435 6.39437 22.788C5.29793 21.6324 4.31459 20.4342 3.44437 19.1933C2.57393 17.9526 1.86648 16.6898 1.32204 15.4047C0.777593 14.1193 0.505371 12.8508 0.505371 11.599C0.505371 8.26565 1.57759 5.61009 3.72204 3.63232C5.86648 1.65454 8.34982 0.665649 11.172 0.665649C13.9943 0.665649 16.4776 1.65454 18.622 3.63232C20.7665 5.61009 21.8387 8.26565 21.8387 11.599C21.8387 12.8508 21.5665 14.1193 21.022 15.4047C20.4776 16.6898 19.7702 17.9526 18.8997 19.1933C18.0295 20.4342 17.0462 21.6324 15.9497 22.788C14.8535 23.9435 13.7535 25.025 12.6497 26.0323C12.4497 26.225 12.2183 26.3658 11.9554 26.4547C11.6925 26.5435 11.4295 26.588 11.1664 26.588ZM11.174 13.7766C11.8467 13.7766 12.4219 13.5371 12.8997 13.058C13.3775 12.5791 13.6164 12.0032 13.6164 11.3303C13.6164 10.6576 13.3768 10.0824 12.8977 9.60465C12.4188 9.12687 11.8429 8.88798 11.17 8.88798C10.4974 8.88798 9.92215 9.12754 9.44437 9.60665C8.96659 10.0855 8.72771 10.6614 8.72771 11.3343C8.72771 12.007 8.96726 12.5822 9.44637 13.06C9.92526 13.5378 10.5011 13.7766 11.174 13.7766Z" fill="#3DCFB6"/>
</svg>
