<svg xmlns="http://www.w3.org/2000/svg" xmlns:xlink="http://www.w3.org/1999/xlink" width="500" zoomAndPan="magnify" viewBox="0 0 375 374.999991" height="500" preserveAspectRatio="xMidYMid meet" version="1.0"><defs><g/><clipPath id="e488aff35a"><path d="M 130 64.386719 L 245 64.386719 L 245 212 L 130 212 Z M 130 64.386719 " clip-rule="nonzero"/></clipPath></defs><g fill="#ff6a00" fill-opacity="0.4"><g transform="translate(76.296649, 289.504522)"><g><path d="M 5.625 -11.875 L 5.625 -8.09375 L 10.625 -8.09375 L 10.625 -5.671875 L 5.625 -5.671875 L 5.625 0 L 2.234375 0 L 2.234375 -14.296875 L 11.625 -14.296875 L 11.265625 -11.875 Z M 5.625 -11.875 "/></g></g></g><g fill="#ff6a00" fill-opacity="0.4"><g transform="translate(88.671717, 289.504522)"><g><path d="M 1.546875 0 L 1.546875 -2.1875 L 2.984375 -2.1875 L 2.984375 -8.78125 L 1.546875 -8.78125 L 1.546875 -10.953125 L 5.46875 -10.953125 L 6.078125 -8.484375 C 6.460938 -9.429688 6.957031 -10.132812 7.5625 -10.59375 C 8.175781 -11.050781 8.925781 -11.28125 9.8125 -11.28125 C 10.175781 -11.28125 10.503906 -11.25 10.796875 -11.1875 C 11.085938 -11.132812 11.359375 -11.054688 11.609375 -10.953125 L 10.625 -8.265625 C 10.425781 -8.316406 10.222656 -8.351562 10.015625 -8.375 C 9.816406 -8.40625 9.597656 -8.421875 9.359375 -8.421875 C 8.648438 -8.421875 8.023438 -8.128906 7.484375 -7.546875 C 6.941406 -6.960938 6.53125 -6.222656 6.25 -5.328125 L 6.25 -2.1875 L 8.421875 -2.1875 L 8.421875 0 Z M 8.96875 -6.375 L 8.96875 -9.5625 L 9.453125 -10.953125 L 11.609375 -10.953125 L 11 -6.375 Z M 8.96875 -6.375 "/></g></g></g><g fill="#ff6a00" fill-opacity="0.4"><g transform="translate(101.046784, 289.504522)"><g><path d="M 6.1875 -11.3125 C 7.3125 -11.3125 8.269531 -11.070312 9.0625 -10.59375 C 9.851562 -10.113281 10.457031 -9.4375 10.875 -8.5625 C 11.300781 -7.695312 11.515625 -6.675781 11.515625 -5.5 C 11.515625 -4.289062 11.300781 -3.242188 10.875 -2.359375 C 10.445312 -1.484375 9.835938 -0.8125 9.046875 -0.34375 C 8.265625 0.113281 7.3125 0.34375 6.1875 0.34375 C 5.070312 0.34375 4.117188 0.113281 3.328125 -0.34375 C 2.535156 -0.800781 1.925781 -1.46875 1.5 -2.34375 C 1.070312 -3.21875 0.859375 -4.265625 0.859375 -5.484375 C 0.859375 -6.648438 1.070312 -7.664062 1.5 -8.53125 C 1.925781 -9.40625 2.535156 -10.085938 3.328125 -10.578125 C 4.117188 -11.066406 5.070312 -11.3125 6.1875 -11.3125 Z M 6.1875 -8.90625 C 5.519531 -8.90625 5.023438 -8.628906 4.703125 -8.078125 C 4.390625 -7.535156 4.234375 -6.671875 4.234375 -5.484375 C 4.234375 -4.273438 4.390625 -3.398438 4.703125 -2.859375 C 5.023438 -2.316406 5.519531 -2.046875 6.1875 -2.046875 C 6.851562 -2.046875 7.34375 -2.316406 7.65625 -2.859375 C 7.976562 -3.398438 8.140625 -4.28125 8.140625 -5.5 C 8.140625 -6.6875 7.976562 -7.550781 7.65625 -8.09375 C 7.34375 -8.632812 6.851562 -8.90625 6.1875 -8.90625 Z M 6.1875 -8.90625 "/></g></g></g><g fill="#ff6a00" fill-opacity="0.4"><g transform="translate(113.421852, 289.504522)"><g><path d="M 1.4375 0 L 1.4375 -10.953125 L 4.296875 -10.953125 L 4.515625 -9.6875 C 5.003906 -10.238281 5.519531 -10.644531 6.0625 -10.90625 C 6.601562 -11.175781 7.222656 -11.3125 7.921875 -11.3125 C 8.859375 -11.3125 9.59375 -11.023438 10.125 -10.453125 C 10.664062 -9.878906 10.9375 -9.078125 10.9375 -8.046875 L 10.9375 0 L 7.671875 0 L 7.671875 -7.109375 C 7.671875 -7.554688 7.640625 -7.910156 7.578125 -8.171875 C 7.515625 -8.429688 7.40625 -8.617188 7.25 -8.734375 C 7.09375 -8.847656 6.882812 -8.90625 6.625 -8.90625 C 6.394531 -8.90625 6.171875 -8.851562 5.953125 -8.75 C 5.734375 -8.65625 5.519531 -8.515625 5.3125 -8.328125 C 5.113281 -8.140625 4.910156 -7.914062 4.703125 -7.65625 L 4.703125 0 Z M 1.4375 0 "/></g></g></g><g fill="#ff6a00" fill-opacity="0.4"><g transform="translate(125.79692, 289.504522)"><g><path d="M 11.296875 -0.640625 C 10.867188 -0.367188 10.351562 -0.140625 9.75 0.046875 C 9.144531 0.242188 8.46875 0.34375 7.71875 0.34375 C 6.28125 0.34375 5.210938 -0.0195312 4.515625 -0.75 C 3.828125 -1.476562 3.484375 -2.472656 3.484375 -3.734375 L 3.484375 -8.703125 L 1.1875 -8.703125 L 1.1875 -10.953125 L 3.484375 -10.953125 L 3.484375 -13.328125 L 6.75 -13.71875 L 6.75 -10.953125 L 10.265625 -10.953125 L 9.953125 -8.703125 L 6.75 -8.703125 L 6.75 -3.734375 C 6.75 -3.191406 6.867188 -2.800781 7.109375 -2.5625 C 7.359375 -2.332031 7.753906 -2.21875 8.296875 -2.21875 C 8.679688 -2.21875 9.035156 -2.265625 9.359375 -2.359375 C 9.679688 -2.453125 9.96875 -2.570312 10.21875 -2.71875 Z M 11.296875 -0.640625 "/></g></g></g><g fill="#ff6a00" fill-opacity="0.4"><g transform="translate(138.171988, 289.504522)"><g><path d="M 4.265625 -4.53125 C 4.347656 -3.925781 4.503906 -3.441406 4.734375 -3.078125 C 4.972656 -2.710938 5.273438 -2.441406 5.640625 -2.265625 C 6.015625 -2.097656 6.4375 -2.015625 6.90625 -2.015625 C 7.40625 -2.015625 7.882812 -2.097656 8.34375 -2.265625 C 8.8125 -2.429688 9.265625 -2.648438 9.703125 -2.921875 L 11.015625 -1.15625 C 10.492188 -0.71875 9.867188 -0.359375 9.140625 -0.078125 C 8.410156 0.203125 7.578125 0.34375 6.640625 0.34375 C 5.390625 0.34375 4.34375 0.0976562 3.5 -0.390625 C 2.65625 -0.890625 2.019531 -1.578125 1.59375 -2.453125 C 1.164062 -3.328125 0.953125 -4.332031 0.953125 -5.46875 C 0.953125 -6.539062 1.15625 -7.519531 1.5625 -8.40625 C 1.976562 -9.289062 2.582031 -9.992188 3.375 -10.515625 C 4.164062 -11.046875 5.140625 -11.3125 6.296875 -11.3125 C 7.335938 -11.3125 8.238281 -11.085938 9 -10.640625 C 9.769531 -10.191406 10.363281 -9.546875 10.78125 -8.703125 C 11.207031 -7.867188 11.421875 -6.863281 11.421875 -5.6875 C 11.421875 -5.507812 11.414062 -5.3125 11.40625 -5.09375 C 11.394531 -4.882812 11.378906 -4.695312 11.359375 -4.53125 Z M 6.296875 -9.125 C 5.710938 -9.125 5.238281 -8.914062 4.875 -8.5 C 4.519531 -8.082031 4.304688 -7.410156 4.234375 -6.484375 L 8.25 -6.484375 C 8.238281 -7.285156 8.082031 -7.925781 7.78125 -8.40625 C 7.476562 -8.882812 6.984375 -9.125 6.296875 -9.125 Z M 6.296875 -9.125 "/></g></g></g><g fill="#ff6a00" fill-opacity="0.4"><g transform="translate(150.547056, 289.504522)"><g><path d="M 1.4375 0 L 1.4375 -10.953125 L 4.296875 -10.953125 L 4.515625 -9.6875 C 5.003906 -10.238281 5.519531 -10.644531 6.0625 -10.90625 C 6.601562 -11.175781 7.222656 -11.3125 7.921875 -11.3125 C 8.859375 -11.3125 9.59375 -11.023438 10.125 -10.453125 C 10.664062 -9.878906 10.9375 -9.078125 10.9375 -8.046875 L 10.9375 0 L 7.671875 0 L 7.671875 -7.109375 C 7.671875 -7.554688 7.640625 -7.910156 7.578125 -8.171875 C 7.515625 -8.429688 7.40625 -8.617188 7.25 -8.734375 C 7.09375 -8.847656 6.882812 -8.90625 6.625 -8.90625 C 6.394531 -8.90625 6.171875 -8.851562 5.953125 -8.75 C 5.734375 -8.65625 5.519531 -8.515625 5.3125 -8.328125 C 5.113281 -8.140625 4.910156 -7.914062 4.703125 -7.65625 L 4.703125 0 Z M 1.4375 0 "/></g></g></g><g fill="#ff6a00" fill-opacity="0.4"><g transform="translate(162.922124, 289.504522)"><g><path d="M 7.671875 -15.640625 L 10.9375 -15.296875 L 10.9375 0 L 8.046875 0 L 7.875 -1.203125 C 7.570312 -0.773438 7.171875 -0.410156 6.671875 -0.109375 C 6.171875 0.191406 5.5625 0.34375 4.84375 0.34375 C 3.9375 0.34375 3.1875 0.101562 2.59375 -0.375 C 2 -0.863281 1.554688 -1.546875 1.265625 -2.421875 C 0.972656 -3.304688 0.828125 -4.332031 0.828125 -5.5 C 0.828125 -6.632812 1 -7.632812 1.34375 -8.5 C 1.695312 -9.375 2.203125 -10.0625 2.859375 -10.5625 C 3.515625 -11.0625 4.289062 -11.3125 5.1875 -11.3125 C 5.675781 -11.3125 6.128906 -11.222656 6.546875 -11.046875 C 6.960938 -10.878906 7.335938 -10.628906 7.671875 -10.296875 Z M 6.0625 -8.9375 C 5.5 -8.9375 5.046875 -8.664062 4.703125 -8.125 C 4.359375 -7.59375 4.1875 -6.710938 4.1875 -5.484375 C 4.1875 -4.585938 4.257812 -3.890625 4.40625 -3.390625 C 4.550781 -2.890625 4.75 -2.539062 5 -2.34375 C 5.257812 -2.144531 5.550781 -2.046875 5.875 -2.046875 C 6.238281 -2.046875 6.570312 -2.15625 6.875 -2.375 C 7.175781 -2.601562 7.441406 -2.914062 7.671875 -3.3125 L 7.671875 -8.03125 C 7.441406 -8.3125 7.195312 -8.53125 6.9375 -8.6875 C 6.6875 -8.851562 6.394531 -8.9375 6.0625 -8.9375 Z M 6.0625 -8.9375 "/></g></g></g><g fill="#ff6a00" fill-opacity="0.4"><g transform="translate(175.297192, 289.504522)"><g/></g></g><g fill="#ff6a00" fill-opacity="0.4"><g transform="translate(187.67226, 289.504522)"><g><path d="M 8.34375 -7.21875 C 8.34375 -8.175781 8.257812 -8.957031 8.09375 -9.5625 C 7.9375 -10.175781 7.710938 -10.644531 7.421875 -10.96875 C 7.140625 -11.300781 6.804688 -11.53125 6.421875 -11.65625 C 6.035156 -11.78125 5.617188 -11.84375 5.171875 -11.84375 L 4.453125 -11.84375 L 4.453125 -2.4375 L 5.171875 -2.4375 C 5.640625 -2.4375 6.066406 -2.507812 6.453125 -2.65625 C 6.847656 -2.8125 7.1875 -3.066406 7.46875 -3.421875 C 7.75 -3.773438 7.960938 -4.257812 8.109375 -4.875 C 8.265625 -5.5 8.34375 -6.28125 8.34375 -7.21875 Z M 11.84375 -7.21875 C 11.84375 -5.769531 11.648438 -4.570312 11.265625 -3.625 C 10.890625 -2.6875 10.375 -1.953125 9.71875 -1.421875 C 9.070312 -0.898438 8.332031 -0.53125 7.5 -0.3125 C 6.675781 -0.101562 5.816406 0 4.921875 0 L 1.078125 0 L 1.078125 -14.296875 L 4.6875 -14.296875 C 5.59375 -14.296875 6.472656 -14.195312 7.328125 -14 C 8.191406 -13.8125 8.960938 -13.460938 9.640625 -12.953125 C 10.316406 -12.453125 10.851562 -11.738281 11.25 -10.8125 C 11.644531 -9.894531 11.84375 -8.695312 11.84375 -7.21875 Z M 11.84375 -7.21875 "/></g></g></g><g fill="#ff6a00" fill-opacity="0.4"><g transform="translate(200.047328, 289.504522)"><g><path d="M 4.265625 -4.53125 C 4.347656 -3.925781 4.503906 -3.441406 4.734375 -3.078125 C 4.972656 -2.710938 5.273438 -2.441406 5.640625 -2.265625 C 6.015625 -2.097656 6.4375 -2.015625 6.90625 -2.015625 C 7.40625 -2.015625 7.882812 -2.097656 8.34375 -2.265625 C 8.8125 -2.429688 9.265625 -2.648438 9.703125 -2.921875 L 11.015625 -1.15625 C 10.492188 -0.71875 9.867188 -0.359375 9.140625 -0.078125 C 8.410156 0.203125 7.578125 0.34375 6.640625 0.34375 C 5.390625 0.34375 4.34375 0.0976562 3.5 -0.390625 C 2.65625 -0.890625 2.019531 -1.578125 1.59375 -2.453125 C 1.164062 -3.328125 0.953125 -4.332031 0.953125 -5.46875 C 0.953125 -6.539062 1.15625 -7.519531 1.5625 -8.40625 C 1.976562 -9.289062 2.582031 -9.992188 3.375 -10.515625 C 4.164062 -11.046875 5.140625 -11.3125 6.296875 -11.3125 C 7.335938 -11.3125 8.238281 -11.085938 9 -10.640625 C 9.769531 -10.191406 10.363281 -9.546875 10.78125 -8.703125 C 11.207031 -7.867188 11.421875 -6.863281 11.421875 -5.6875 C 11.421875 -5.507812 11.414062 -5.3125 11.40625 -5.09375 C 11.394531 -4.882812 11.378906 -4.695312 11.359375 -4.53125 Z M 6.296875 -9.125 C 5.710938 -9.125 5.238281 -8.914062 4.875 -8.5 C 4.519531 -8.082031 4.304688 -7.410156 4.234375 -6.484375 L 8.25 -6.484375 C 8.238281 -7.285156 8.082031 -7.925781 7.78125 -8.40625 C 7.476562 -8.882812 6.984375 -9.125 6.296875 -9.125 Z M 6.296875 -9.125 "/></g></g></g><g fill="#ff6a00" fill-opacity="0.4"><g transform="translate(212.422395, 289.504522)"><g><path d="M 11.78125 -10.953125 L 8.125 0 L 4.296875 0 L 0.59375 -10.953125 L 4.109375 -10.953125 L 6.25 -2.5 L 8.484375 -10.953125 Z M 11.78125 -10.953125 "/></g></g></g><g fill="#ff6a00" fill-opacity="0.4"><g transform="translate(224.797463, 289.504522)"><g><path d="M 4.265625 -4.53125 C 4.347656 -3.925781 4.503906 -3.441406 4.734375 -3.078125 C 4.972656 -2.710938 5.273438 -2.441406 5.640625 -2.265625 C 6.015625 -2.097656 6.4375 -2.015625 6.90625 -2.015625 C 7.40625 -2.015625 7.882812 -2.097656 8.34375 -2.265625 C 8.8125 -2.429688 9.265625 -2.648438 9.703125 -2.921875 L 11.015625 -1.15625 C 10.492188 -0.71875 9.867188 -0.359375 9.140625 -0.078125 C 8.410156 0.203125 7.578125 0.34375 6.640625 0.34375 C 5.390625 0.34375 4.34375 0.0976562 3.5 -0.390625 C 2.65625 -0.890625 2.019531 -1.578125 1.59375 -2.453125 C 1.164062 -3.328125 0.953125 -4.332031 0.953125 -5.46875 C 0.953125 -6.539062 1.15625 -7.519531 1.5625 -8.40625 C 1.976562 -9.289062 2.582031 -9.992188 3.375 -10.515625 C 4.164062 -11.046875 5.140625 -11.3125 6.296875 -11.3125 C 7.335938 -11.3125 8.238281 -11.085938 9 -10.640625 C 9.769531 -10.191406 10.363281 -9.546875 10.78125 -8.703125 C 11.207031 -7.867188 11.421875 -6.863281 11.421875 -5.6875 C 11.421875 -5.507812 11.414062 -5.3125 11.40625 -5.09375 C 11.394531 -4.882812 11.378906 -4.695312 11.359375 -4.53125 Z M 6.296875 -9.125 C 5.710938 -9.125 5.238281 -8.914062 4.875 -8.5 C 4.519531 -8.082031 4.304688 -7.410156 4.234375 -6.484375 L 8.25 -6.484375 C 8.238281 -7.285156 8.082031 -7.925781 7.78125 -8.40625 C 7.476562 -8.882812 6.984375 -9.125 6.296875 -9.125 Z M 6.296875 -9.125 "/></g></g></g><g fill="#ff6a00" fill-opacity="0.4"><g transform="translate(237.172531, 289.504522)"><g><path d="M 7.15625 -15.296875 L 7.15625 -3.4375 C 7.15625 -3 7.28125 -2.6875 7.53125 -2.5 C 7.78125 -2.3125 8.125 -2.21875 8.5625 -2.21875 C 8.851562 -2.21875 9.128906 -2.25 9.390625 -2.3125 C 9.648438 -2.375 9.890625 -2.453125 10.109375 -2.546875 L 10.90625 -0.375 C 10.53125 -0.175781 10.082031 -0.0078125 9.5625 0.125 C 9.039062 0.269531 8.429688 0.34375 7.734375 0.34375 C 6.410156 0.34375 5.4375 -0.03125 4.8125 -0.78125 C 4.195312 -1.539062 3.890625 -2.5625 3.890625 -3.84375 L 3.890625 -13.078125 L 0.671875 -13.078125 L 0.671875 -15.296875 Z M 7.15625 -15.296875 "/></g></g></g><g fill="#ff6a00" fill-opacity="0.4"><g transform="translate(249.547599, 289.504522)"><g><path d="M 6.1875 -11.3125 C 7.3125 -11.3125 8.269531 -11.070312 9.0625 -10.59375 C 9.851562 -10.113281 10.457031 -9.4375 10.875 -8.5625 C 11.300781 -7.695312 11.515625 -6.675781 11.515625 -5.5 C 11.515625 -4.289062 11.300781 -3.242188 10.875 -2.359375 C 10.445312 -1.484375 9.835938 -0.8125 9.046875 -0.34375 C 8.265625 0.113281 7.3125 0.34375 6.1875 0.34375 C 5.070312 0.34375 4.117188 0.113281 3.328125 -0.34375 C 2.535156 -0.800781 1.925781 -1.46875 1.5 -2.34375 C 1.070312 -3.21875 0.859375 -4.265625 0.859375 -5.484375 C 0.859375 -6.648438 1.070312 -7.664062 1.5 -8.53125 C 1.925781 -9.40625 2.535156 -10.085938 3.328125 -10.578125 C 4.117188 -11.066406 5.070312 -11.3125 6.1875 -11.3125 Z M 6.1875 -8.90625 C 5.519531 -8.90625 5.023438 -8.628906 4.703125 -8.078125 C 4.390625 -7.535156 4.234375 -6.671875 4.234375 -5.484375 C 4.234375 -4.273438 4.390625 -3.398438 4.703125 -2.859375 C 5.023438 -2.316406 5.519531 -2.046875 6.1875 -2.046875 C 6.851562 -2.046875 7.34375 -2.316406 7.65625 -2.859375 C 7.976562 -3.398438 8.140625 -4.28125 8.140625 -5.5 C 8.140625 -6.6875 7.976562 -7.550781 7.65625 -8.09375 C 7.34375 -8.632812 6.851562 -8.90625 6.1875 -8.90625 Z M 6.1875 -8.90625 "/></g></g></g><g fill="#ff6a00" fill-opacity="0.4"><g transform="translate(261.922667, 289.504522)"><g><path d="M 7.5 -11.3125 C 8.457031 -11.3125 9.226562 -11.070312 9.8125 -10.59375 C 10.394531 -10.125 10.820312 -9.457031 11.09375 -8.59375 C 11.375 -7.726562 11.515625 -6.695312 11.515625 -5.5 C 11.515625 -4.375 11.347656 -3.367188 11.015625 -2.484375 C 10.679688 -1.609375 10.203125 -0.914062 9.578125 -0.40625 C 8.953125 0.09375 8.191406 0.34375 7.296875 0.34375 C 6.234375 0.34375 5.367188 -0.0351562 4.703125 -0.796875 L 4.703125 4.234375 L 1.4375 4.5625 L 1.4375 -10.953125 L 4.328125 -10.953125 L 4.46875 -9.71875 C 4.914062 -10.289062 5.40625 -10.695312 5.9375 -10.9375 C 6.46875 -11.1875 6.988281 -11.3125 7.5 -11.3125 Z M 6.5 -8.90625 C 6.125 -8.90625 5.789062 -8.789062 5.5 -8.5625 C 5.207031 -8.34375 4.941406 -8.035156 4.703125 -7.640625 L 4.703125 -3.015625 C 4.929688 -2.679688 5.171875 -2.4375 5.421875 -2.28125 C 5.671875 -2.125 5.96875 -2.046875 6.3125 -2.046875 C 6.882812 -2.046875 7.332031 -2.304688 7.65625 -2.828125 C 7.976562 -3.359375 8.140625 -4.238281 8.140625 -5.46875 C 8.140625 -6.375 8.070312 -7.078125 7.9375 -7.578125 C 7.8125 -8.078125 7.625 -8.421875 7.375 -8.609375 C 7.132812 -8.804688 6.84375 -8.90625 6.5 -8.90625 Z M 6.5 -8.90625 "/></g></g></g><g fill="#ff6a00" fill-opacity="0.4"><g transform="translate(274.297735, 289.504522)"><g><path d="M 4.265625 -4.53125 C 4.347656 -3.925781 4.503906 -3.441406 4.734375 -3.078125 C 4.972656 -2.710938 5.273438 -2.441406 5.640625 -2.265625 C 6.015625 -2.097656 6.4375 -2.015625 6.90625 -2.015625 C 7.40625 -2.015625 7.882812 -2.097656 8.34375 -2.265625 C 8.8125 -2.429688 9.265625 -2.648438 9.703125 -2.921875 L 11.015625 -1.15625 C 10.492188 -0.71875 9.867188 -0.359375 9.140625 -0.078125 C 8.410156 0.203125 7.578125 0.34375 6.640625 0.34375 C 5.390625 0.34375 4.34375 0.0976562 3.5 -0.390625 C 2.65625 -0.890625 2.019531 -1.578125 1.59375 -2.453125 C 1.164062 -3.328125 0.953125 -4.332031 0.953125 -5.46875 C 0.953125 -6.539062 1.15625 -7.519531 1.5625 -8.40625 C 1.976562 -9.289062 2.582031 -9.992188 3.375 -10.515625 C 4.164062 -11.046875 5.140625 -11.3125 6.296875 -11.3125 C 7.335938 -11.3125 8.238281 -11.085938 9 -10.640625 C 9.769531 -10.191406 10.363281 -9.546875 10.78125 -8.703125 C 11.207031 -7.867188 11.421875 -6.863281 11.421875 -5.6875 C 11.421875 -5.507812 11.414062 -5.3125 11.40625 -5.09375 C 11.394531 -4.882812 11.378906 -4.695312 11.359375 -4.53125 Z M 6.296875 -9.125 C 5.710938 -9.125 5.238281 -8.914062 4.875 -8.5 C 4.519531 -8.082031 4.304688 -7.410156 4.234375 -6.484375 L 8.25 -6.484375 C 8.238281 -7.285156 8.082031 -7.925781 7.78125 -8.40625 C 7.476562 -8.882812 6.984375 -9.125 6.296875 -9.125 Z M 6.296875 -9.125 "/></g></g></g><g fill="#ff6a00" fill-opacity="0.4"><g transform="translate(286.672803, 289.504522)"><g><path d="M 1.546875 0 L 1.546875 -2.1875 L 2.984375 -2.1875 L 2.984375 -8.78125 L 1.546875 -8.78125 L 1.546875 -10.953125 L 5.46875 -10.953125 L 6.078125 -8.484375 C 6.460938 -9.429688 6.957031 -10.132812 7.5625 -10.59375 C 8.175781 -11.050781 8.925781 -11.28125 9.8125 -11.28125 C 10.175781 -11.28125 10.503906 -11.25 10.796875 -11.1875 C 11.085938 -11.132812 11.359375 -11.054688 11.609375 -10.953125 L 10.625 -8.265625 C 10.425781 -8.316406 10.222656 -8.351562 10.015625 -8.375 C 9.816406 -8.40625 9.597656 -8.421875 9.359375 -8.421875 C 8.648438 -8.421875 8.023438 -8.128906 7.484375 -7.546875 C 6.941406 -6.960938 6.53125 -6.222656 6.25 -5.328125 L 6.25 -2.1875 L 8.421875 -2.1875 L 8.421875 0 Z M 8.96875 -6.375 L 8.96875 -9.5625 L 9.453125 -10.953125 L 11.609375 -10.953125 L 11 -6.375 Z M 8.96875 -6.375 "/></g></g></g><g fill="#3dcfb6" fill-opacity="1"><g transform="translate(76.11427, 289.322148)"><g><path d="M 5.625 -11.875 L 5.625 -8.09375 L 10.625 -8.09375 L 10.625 -5.671875 L 5.625 -5.671875 L 5.625 0 L 2.234375 0 L 2.234375 -14.296875 L 11.625 -14.296875 L 11.265625 -11.875 Z M 5.625 -11.875 "/></g></g></g><g fill="#3dcfb6" fill-opacity="1"><g transform="translate(88.489338, 289.322148)"><g><path d="M 1.546875 0 L 1.546875 -2.1875 L 2.984375 -2.1875 L 2.984375 -8.78125 L 1.546875 -8.78125 L 1.546875 -10.953125 L 5.46875 -10.953125 L 6.078125 -8.484375 C 6.460938 -9.429688 6.957031 -10.132812 7.5625 -10.59375 C 8.175781 -11.050781 8.925781 -11.28125 9.8125 -11.28125 C 10.175781 -11.28125 10.503906 -11.25 10.796875 -11.1875 C 11.085938 -11.132812 11.359375 -11.054688 11.609375 -10.953125 L 10.625 -8.265625 C 10.425781 -8.316406 10.222656 -8.351562 10.015625 -8.375 C 9.816406 -8.40625 9.597656 -8.421875 9.359375 -8.421875 C 8.648438 -8.421875 8.023438 -8.128906 7.484375 -7.546875 C 6.941406 -6.960938 6.53125 -6.222656 6.25 -5.328125 L 6.25 -2.1875 L 8.421875 -2.1875 L 8.421875 0 Z M 8.96875 -6.375 L 8.96875 -9.5625 L 9.453125 -10.953125 L 11.609375 -10.953125 L 11 -6.375 Z M 8.96875 -6.375 "/></g></g></g><g fill="#3dcfb6" fill-opacity="1"><g transform="translate(100.864406, 289.322148)"><g><path d="M 6.1875 -11.3125 C 7.3125 -11.3125 8.269531 -11.070312 9.0625 -10.59375 C 9.851562 -10.113281 10.457031 -9.4375 10.875 -8.5625 C 11.300781 -7.695312 11.515625 -6.675781 11.515625 -5.5 C 11.515625 -4.289062 11.300781 -3.242188 10.875 -2.359375 C 10.445312 -1.484375 9.835938 -0.8125 9.046875 -0.34375 C 8.265625 0.113281 7.3125 0.34375 6.1875 0.34375 C 5.070312 0.34375 4.117188 0.113281 3.328125 -0.34375 C 2.535156 -0.800781 1.925781 -1.46875 1.5 -2.34375 C 1.070312 -3.21875 0.859375 -4.265625 0.859375 -5.484375 C 0.859375 -6.648438 1.070312 -7.664062 1.5 -8.53125 C 1.925781 -9.40625 2.535156 -10.085938 3.328125 -10.578125 C 4.117188 -11.066406 5.070312 -11.3125 6.1875 -11.3125 Z M 6.1875 -8.90625 C 5.519531 -8.90625 5.023438 -8.628906 4.703125 -8.078125 C 4.390625 -7.535156 4.234375 -6.671875 4.234375 -5.484375 C 4.234375 -4.273438 4.390625 -3.398438 4.703125 -2.859375 C 5.023438 -2.316406 5.519531 -2.046875 6.1875 -2.046875 C 6.851562 -2.046875 7.34375 -2.316406 7.65625 -2.859375 C 7.976562 -3.398438 8.140625 -4.28125 8.140625 -5.5 C 8.140625 -6.6875 7.976562 -7.550781 7.65625 -8.09375 C 7.34375 -8.632812 6.851562 -8.90625 6.1875 -8.90625 Z M 6.1875 -8.90625 "/></g></g></g><g fill="#3dcfb6" fill-opacity="1"><g transform="translate(113.239474, 289.322148)"><g><path d="M 1.4375 0 L 1.4375 -10.953125 L 4.296875 -10.953125 L 4.515625 -9.6875 C 5.003906 -10.238281 5.519531 -10.644531 6.0625 -10.90625 C 6.601562 -11.175781 7.222656 -11.3125 7.921875 -11.3125 C 8.859375 -11.3125 9.59375 -11.023438 10.125 -10.453125 C 10.664062 -9.878906 10.9375 -9.078125 10.9375 -8.046875 L 10.9375 0 L 7.671875 0 L 7.671875 -7.109375 C 7.671875 -7.554688 7.640625 -7.910156 7.578125 -8.171875 C 7.515625 -8.429688 7.40625 -8.617188 7.25 -8.734375 C 7.09375 -8.847656 6.882812 -8.90625 6.625 -8.90625 C 6.394531 -8.90625 6.171875 -8.851562 5.953125 -8.75 C 5.734375 -8.65625 5.519531 -8.515625 5.3125 -8.328125 C 5.113281 -8.140625 4.910156 -7.914062 4.703125 -7.65625 L 4.703125 0 Z M 1.4375 0 "/></g></g></g><g fill="#3dcfb6" fill-opacity="1"><g transform="translate(125.614542, 289.322148)"><g><path d="M 11.296875 -0.640625 C 10.867188 -0.367188 10.351562 -0.140625 9.75 0.046875 C 9.144531 0.242188 8.46875 0.34375 7.71875 0.34375 C 6.28125 0.34375 5.210938 -0.0195312 4.515625 -0.75 C 3.828125 -1.476562 3.484375 -2.472656 3.484375 -3.734375 L 3.484375 -8.703125 L 1.1875 -8.703125 L 1.1875 -10.953125 L 3.484375 -10.953125 L 3.484375 -13.328125 L 6.75 -13.71875 L 6.75 -10.953125 L 10.265625 -10.953125 L 9.953125 -8.703125 L 6.75 -8.703125 L 6.75 -3.734375 C 6.75 -3.191406 6.867188 -2.800781 7.109375 -2.5625 C 7.359375 -2.332031 7.753906 -2.21875 8.296875 -2.21875 C 8.679688 -2.21875 9.035156 -2.265625 9.359375 -2.359375 C 9.679688 -2.453125 9.96875 -2.570312 10.21875 -2.71875 Z M 11.296875 -0.640625 "/></g></g></g><g fill="#3dcfb6" fill-opacity="1"><g transform="translate(137.98961, 289.322148)"><g><path d="M 4.265625 -4.53125 C 4.347656 -3.925781 4.503906 -3.441406 4.734375 -3.078125 C 4.972656 -2.710938 5.273438 -2.441406 5.640625 -2.265625 C 6.015625 -2.097656 6.4375 -2.015625 6.90625 -2.015625 C 7.40625 -2.015625 7.882812 -2.097656 8.34375 -2.265625 C 8.8125 -2.429688 9.265625 -2.648438 9.703125 -2.921875 L 11.015625 -1.15625 C 10.492188 -0.71875 9.867188 -0.359375 9.140625 -0.078125 C 8.410156 0.203125 7.578125 0.34375 6.640625 0.34375 C 5.390625 0.34375 4.34375 0.0976562 3.5 -0.390625 C 2.65625 -0.890625 2.019531 -1.578125 1.59375 -2.453125 C 1.164062 -3.328125 0.953125 -4.332031 0.953125 -5.46875 C 0.953125 -6.539062 1.15625 -7.519531 1.5625 -8.40625 C 1.976562 -9.289062 2.582031 -9.992188 3.375 -10.515625 C 4.164062 -11.046875 5.140625 -11.3125 6.296875 -11.3125 C 7.335938 -11.3125 8.238281 -11.085938 9 -10.640625 C 9.769531 -10.191406 10.363281 -9.546875 10.78125 -8.703125 C 11.207031 -7.867188 11.421875 -6.863281 11.421875 -5.6875 C 11.421875 -5.507812 11.414062 -5.3125 11.40625 -5.09375 C 11.394531 -4.882812 11.378906 -4.695312 11.359375 -4.53125 Z M 6.296875 -9.125 C 5.710938 -9.125 5.238281 -8.914062 4.875 -8.5 C 4.519531 -8.082031 4.304688 -7.410156 4.234375 -6.484375 L 8.25 -6.484375 C 8.238281 -7.285156 8.082031 -7.925781 7.78125 -8.40625 C 7.476562 -8.882812 6.984375 -9.125 6.296875 -9.125 Z M 6.296875 -9.125 "/></g></g></g><g fill="#3dcfb6" fill-opacity="1"><g transform="translate(150.364678, 289.322148)"><g><path d="M 1.4375 0 L 1.4375 -10.953125 L 4.296875 -10.953125 L 4.515625 -9.6875 C 5.003906 -10.238281 5.519531 -10.644531 6.0625 -10.90625 C 6.601562 -11.175781 7.222656 -11.3125 7.921875 -11.3125 C 8.859375 -11.3125 9.59375 -11.023438 10.125 -10.453125 C 10.664062 -9.878906 10.9375 -9.078125 10.9375 -8.046875 L 10.9375 0 L 7.671875 0 L 7.671875 -7.109375 C 7.671875 -7.554688 7.640625 -7.910156 7.578125 -8.171875 C 7.515625 -8.429688 7.40625 -8.617188 7.25 -8.734375 C 7.09375 -8.847656 6.882812 -8.90625 6.625 -8.90625 C 6.394531 -8.90625 6.171875 -8.851562 5.953125 -8.75 C 5.734375 -8.65625 5.519531 -8.515625 5.3125 -8.328125 C 5.113281 -8.140625 4.910156 -7.914062 4.703125 -7.65625 L 4.703125 0 Z M 1.4375 0 "/></g></g></g><g fill="#3dcfb6" fill-opacity="1"><g transform="translate(162.739746, 289.322148)"><g><path d="M 7.671875 -15.640625 L 10.9375 -15.296875 L 10.9375 0 L 8.046875 0 L 7.875 -1.203125 C 7.570312 -0.773438 7.171875 -0.410156 6.671875 -0.109375 C 6.171875 0.191406 5.5625 0.34375 4.84375 0.34375 C 3.9375 0.34375 3.1875 0.101562 2.59375 -0.375 C 2 -0.863281 1.554688 -1.546875 1.265625 -2.421875 C 0.972656 -3.304688 0.828125 -4.332031 0.828125 -5.5 C 0.828125 -6.632812 1 -7.632812 1.34375 -8.5 C 1.695312 -9.375 2.203125 -10.0625 2.859375 -10.5625 C 3.515625 -11.0625 4.289062 -11.3125 5.1875 -11.3125 C 5.675781 -11.3125 6.128906 -11.222656 6.546875 -11.046875 C 6.960938 -10.878906 7.335938 -10.628906 7.671875 -10.296875 Z M 6.0625 -8.9375 C 5.5 -8.9375 5.046875 -8.664062 4.703125 -8.125 C 4.359375 -7.59375 4.1875 -6.710938 4.1875 -5.484375 C 4.1875 -4.585938 4.257812 -3.890625 4.40625 -3.390625 C 4.550781 -2.890625 4.75 -2.539062 5 -2.34375 C 5.257812 -2.144531 5.550781 -2.046875 5.875 -2.046875 C 6.238281 -2.046875 6.570312 -2.15625 6.875 -2.375 C 7.175781 -2.601562 7.441406 -2.914062 7.671875 -3.3125 L 7.671875 -8.03125 C 7.441406 -8.3125 7.195312 -8.53125 6.9375 -8.6875 C 6.6875 -8.851562 6.394531 -8.9375 6.0625 -8.9375 Z M 6.0625 -8.9375 "/></g></g></g><g fill="#3dcfb6" fill-opacity="1"><g transform="translate(175.114813, 289.322148)"><g/></g></g><g fill="#3dcfb6" fill-opacity="1"><g transform="translate(187.489881, 289.322148)"><g><path d="M 8.34375 -7.21875 C 8.34375 -8.175781 8.257812 -8.957031 8.09375 -9.5625 C 7.9375 -10.175781 7.710938 -10.644531 7.421875 -10.96875 C 7.140625 -11.300781 6.804688 -11.53125 6.421875 -11.65625 C 6.035156 -11.78125 5.617188 -11.84375 5.171875 -11.84375 L 4.453125 -11.84375 L 4.453125 -2.4375 L 5.171875 -2.4375 C 5.640625 -2.4375 6.066406 -2.507812 6.453125 -2.65625 C 6.847656 -2.8125 7.1875 -3.066406 7.46875 -3.421875 C 7.75 -3.773438 7.960938 -4.257812 8.109375 -4.875 C 8.265625 -5.5 8.34375 -6.28125 8.34375 -7.21875 Z M 11.84375 -7.21875 C 11.84375 -5.769531 11.648438 -4.570312 11.265625 -3.625 C 10.890625 -2.6875 10.375 -1.953125 9.71875 -1.421875 C 9.070312 -0.898438 8.332031 -0.53125 7.5 -0.3125 C 6.675781 -0.101562 5.816406 0 4.921875 0 L 1.078125 0 L 1.078125 -14.296875 L 4.6875 -14.296875 C 5.59375 -14.296875 6.472656 -14.195312 7.328125 -14 C 8.191406 -13.8125 8.960938 -13.460938 9.640625 -12.953125 C 10.316406 -12.453125 10.851562 -11.738281 11.25 -10.8125 C 11.644531 -9.894531 11.84375 -8.695312 11.84375 -7.21875 Z M 11.84375 -7.21875 "/></g></g></g><g fill="#3dcfb6" fill-opacity="1"><g transform="translate(199.864949, 289.322148)"><g><path d="M 4.265625 -4.53125 C 4.347656 -3.925781 4.503906 -3.441406 4.734375 -3.078125 C 4.972656 -2.710938 5.273438 -2.441406 5.640625 -2.265625 C 6.015625 -2.097656 6.4375 -2.015625 6.90625 -2.015625 C 7.40625 -2.015625 7.882812 -2.097656 8.34375 -2.265625 C 8.8125 -2.429688 9.265625 -2.648438 9.703125 -2.921875 L 11.015625 -1.15625 C 10.492188 -0.71875 9.867188 -0.359375 9.140625 -0.078125 C 8.410156 0.203125 7.578125 0.34375 6.640625 0.34375 C 5.390625 0.34375 4.34375 0.0976562 3.5 -0.390625 C 2.65625 -0.890625 2.019531 -1.578125 1.59375 -2.453125 C 1.164062 -3.328125 0.953125 -4.332031 0.953125 -5.46875 C 0.953125 -6.539062 1.15625 -7.519531 1.5625 -8.40625 C 1.976562 -9.289062 2.582031 -9.992188 3.375 -10.515625 C 4.164062 -11.046875 5.140625 -11.3125 6.296875 -11.3125 C 7.335938 -11.3125 8.238281 -11.085938 9 -10.640625 C 9.769531 -10.191406 10.363281 -9.546875 10.78125 -8.703125 C 11.207031 -7.867188 11.421875 -6.863281 11.421875 -5.6875 C 11.421875 -5.507812 11.414062 -5.3125 11.40625 -5.09375 C 11.394531 -4.882812 11.378906 -4.695312 11.359375 -4.53125 Z M 6.296875 -9.125 C 5.710938 -9.125 5.238281 -8.914062 4.875 -8.5 C 4.519531 -8.082031 4.304688 -7.410156 4.234375 -6.484375 L 8.25 -6.484375 C 8.238281 -7.285156 8.082031 -7.925781 7.78125 -8.40625 C 7.476562 -8.882812 6.984375 -9.125 6.296875 -9.125 Z M 6.296875 -9.125 "/></g></g></g><g fill="#3dcfb6" fill-opacity="1"><g transform="translate(212.240017, 289.322148)"><g><path d="M 11.78125 -10.953125 L 8.125 0 L 4.296875 0 L 0.59375 -10.953125 L 4.109375 -10.953125 L 6.25 -2.5 L 8.484375 -10.953125 Z M 11.78125 -10.953125 "/></g></g></g><g fill="#3dcfb6" fill-opacity="1"><g transform="translate(224.615085, 289.322148)"><g><path d="M 4.265625 -4.53125 C 4.347656 -3.925781 4.503906 -3.441406 4.734375 -3.078125 C 4.972656 -2.710938 5.273438 -2.441406 5.640625 -2.265625 C 6.015625 -2.097656 6.4375 -2.015625 6.90625 -2.015625 C 7.40625 -2.015625 7.882812 -2.097656 8.34375 -2.265625 C 8.8125 -2.429688 9.265625 -2.648438 9.703125 -2.921875 L 11.015625 -1.15625 C 10.492188 -0.71875 9.867188 -0.359375 9.140625 -0.078125 C 8.410156 0.203125 7.578125 0.34375 6.640625 0.34375 C 5.390625 0.34375 4.34375 0.0976562 3.5 -0.390625 C 2.65625 -0.890625 2.019531 -1.578125 1.59375 -2.453125 C 1.164062 -3.328125 0.953125 -4.332031 0.953125 -5.46875 C 0.953125 -6.539062 1.15625 -7.519531 1.5625 -8.40625 C 1.976562 -9.289062 2.582031 -9.992188 3.375 -10.515625 C 4.164062 -11.046875 5.140625 -11.3125 6.296875 -11.3125 C 7.335938 -11.3125 8.238281 -11.085938 9 -10.640625 C 9.769531 -10.191406 10.363281 -9.546875 10.78125 -8.703125 C 11.207031 -7.867188 11.421875 -6.863281 11.421875 -5.6875 C 11.421875 -5.507812 11.414062 -5.3125 11.40625 -5.09375 C 11.394531 -4.882812 11.378906 -4.695312 11.359375 -4.53125 Z M 6.296875 -9.125 C 5.710938 -9.125 5.238281 -8.914062 4.875 -8.5 C 4.519531 -8.082031 4.304688 -7.410156 4.234375 -6.484375 L 8.25 -6.484375 C 8.238281 -7.285156 8.082031 -7.925781 7.78125 -8.40625 C 7.476562 -8.882812 6.984375 -9.125 6.296875 -9.125 Z M 6.296875 -9.125 "/></g></g></g><g fill="#3dcfb6" fill-opacity="1"><g transform="translate(236.990153, 289.322148)"><g><path d="M 7.15625 -15.296875 L 7.15625 -3.4375 C 7.15625 -3 7.28125 -2.6875 7.53125 -2.5 C 7.78125 -2.3125 8.125 -2.21875 8.5625 -2.21875 C 8.851562 -2.21875 9.128906 -2.25 9.390625 -2.3125 C 9.648438 -2.375 9.890625 -2.453125 10.109375 -2.546875 L 10.90625 -0.375 C 10.53125 -0.175781 10.082031 -0.0078125 9.5625 0.125 C 9.039062 0.269531 8.429688 0.34375 7.734375 0.34375 C 6.410156 0.34375 5.4375 -0.03125 4.8125 -0.78125 C 4.195312 -1.539062 3.890625 -2.5625 3.890625 -3.84375 L 3.890625 -13.078125 L 0.671875 -13.078125 L 0.671875 -15.296875 Z M 7.15625 -15.296875 "/></g></g></g><g fill="#3dcfb6" fill-opacity="1"><g transform="translate(249.365221, 289.322148)"><g><path d="M 6.1875 -11.3125 C 7.3125 -11.3125 8.269531 -11.070312 9.0625 -10.59375 C 9.851562 -10.113281 10.457031 -9.4375 10.875 -8.5625 C 11.300781 -7.695312 11.515625 -6.675781 11.515625 -5.5 C 11.515625 -4.289062 11.300781 -3.242188 10.875 -2.359375 C 10.445312 -1.484375 9.835938 -0.8125 9.046875 -0.34375 C 8.265625 0.113281 7.3125 0.34375 6.1875 0.34375 C 5.070312 0.34375 4.117188 0.113281 3.328125 -0.34375 C 2.535156 -0.800781 1.925781 -1.46875 1.5 -2.34375 C 1.070312 -3.21875 0.859375 -4.265625 0.859375 -5.484375 C 0.859375 -6.648438 1.070312 -7.664062 1.5 -8.53125 C 1.925781 -9.40625 2.535156 -10.085938 3.328125 -10.578125 C 4.117188 -11.066406 5.070312 -11.3125 6.1875 -11.3125 Z M 6.1875 -8.90625 C 5.519531 -8.90625 5.023438 -8.628906 4.703125 -8.078125 C 4.390625 -7.535156 4.234375 -6.671875 4.234375 -5.484375 C 4.234375 -4.273438 4.390625 -3.398438 4.703125 -2.859375 C 5.023438 -2.316406 5.519531 -2.046875 6.1875 -2.046875 C 6.851562 -2.046875 7.34375 -2.316406 7.65625 -2.859375 C 7.976562 -3.398438 8.140625 -4.28125 8.140625 -5.5 C 8.140625 -6.6875 7.976562 -7.550781 7.65625 -8.09375 C 7.34375 -8.632812 6.851562 -8.90625 6.1875 -8.90625 Z M 6.1875 -8.90625 "/></g></g></g><g fill="#3dcfb6" fill-opacity="1"><g transform="translate(261.740289, 289.322148)"><g><path d="M 7.5 -11.3125 C 8.457031 -11.3125 9.226562 -11.070312 9.8125 -10.59375 C 10.394531 -10.125 10.820312 -9.457031 11.09375 -8.59375 C 11.375 -7.726562 11.515625 -6.695312 11.515625 -5.5 C 11.515625 -4.375 11.347656 -3.367188 11.015625 -2.484375 C 10.679688 -1.609375 10.203125 -0.914062 9.578125 -0.40625 C 8.953125 0.09375 8.191406 0.34375 7.296875 0.34375 C 6.234375 0.34375 5.367188 -0.0351562 4.703125 -0.796875 L 4.703125 4.234375 L 1.4375 4.5625 L 1.4375 -10.953125 L 4.328125 -10.953125 L 4.46875 -9.71875 C 4.914062 -10.289062 5.40625 -10.695312 5.9375 -10.9375 C 6.46875 -11.1875 6.988281 -11.3125 7.5 -11.3125 Z M 6.5 -8.90625 C 6.125 -8.90625 5.789062 -8.789062 5.5 -8.5625 C 5.207031 -8.34375 4.941406 -8.035156 4.703125 -7.640625 L 4.703125 -3.015625 C 4.929688 -2.679688 5.171875 -2.4375 5.421875 -2.28125 C 5.671875 -2.125 5.96875 -2.046875 6.3125 -2.046875 C 6.882812 -2.046875 7.332031 -2.304688 7.65625 -2.828125 C 7.976562 -3.359375 8.140625 -4.238281 8.140625 -5.46875 C 8.140625 -6.375 8.070312 -7.078125 7.9375 -7.578125 C 7.8125 -8.078125 7.625 -8.421875 7.375 -8.609375 C 7.132812 -8.804688 6.84375 -8.90625 6.5 -8.90625 Z M 6.5 -8.90625 "/></g></g></g><g fill="#3dcfb6" fill-opacity="1"><g transform="translate(274.115356, 289.322148)"><g><path d="M 4.265625 -4.53125 C 4.347656 -3.925781 4.503906 -3.441406 4.734375 -3.078125 C 4.972656 -2.710938 5.273438 -2.441406 5.640625 -2.265625 C 6.015625 -2.097656 6.4375 -2.015625 6.90625 -2.015625 C 7.40625 -2.015625 7.882812 -2.097656 8.34375 -2.265625 C 8.8125 -2.429688 9.265625 -2.648438 9.703125 -2.921875 L 11.015625 -1.15625 C 10.492188 -0.71875 9.867188 -0.359375 9.140625 -0.078125 C 8.410156 0.203125 7.578125 0.34375 6.640625 0.34375 C 5.390625 0.34375 4.34375 0.0976562 3.5 -0.390625 C 2.65625 -0.890625 2.019531 -1.578125 1.59375 -2.453125 C 1.164062 -3.328125 0.953125 -4.332031 0.953125 -5.46875 C 0.953125 -6.539062 1.15625 -7.519531 1.5625 -8.40625 C 1.976562 -9.289062 2.582031 -9.992188 3.375 -10.515625 C 4.164062 -11.046875 5.140625 -11.3125 6.296875 -11.3125 C 7.335938 -11.3125 8.238281 -11.085938 9 -10.640625 C 9.769531 -10.191406 10.363281 -9.546875 10.78125 -8.703125 C 11.207031 -7.867188 11.421875 -6.863281 11.421875 -5.6875 C 11.421875 -5.507812 11.414062 -5.3125 11.40625 -5.09375 C 11.394531 -4.882812 11.378906 -4.695312 11.359375 -4.53125 Z M 6.296875 -9.125 C 5.710938 -9.125 5.238281 -8.914062 4.875 -8.5 C 4.519531 -8.082031 4.304688 -7.410156 4.234375 -6.484375 L 8.25 -6.484375 C 8.238281 -7.285156 8.082031 -7.925781 7.78125 -8.40625 C 7.476562 -8.882812 6.984375 -9.125 6.296875 -9.125 Z M 6.296875 -9.125 "/></g></g></g><g fill="#3dcfb6" fill-opacity="1"><g transform="translate(286.490424, 289.322148)"><g><path d="M 1.546875 0 L 1.546875 -2.1875 L 2.984375 -2.1875 L 2.984375 -8.78125 L 1.546875 -8.78125 L 1.546875 -10.953125 L 5.46875 -10.953125 L 6.078125 -8.484375 C 6.460938 -9.429688 6.957031 -10.132812 7.5625 -10.59375 C 8.175781 -11.050781 8.925781 -11.28125 9.8125 -11.28125 C 10.175781 -11.28125 10.503906 -11.25 10.796875 -11.1875 C 11.085938 -11.132812 11.359375 -11.054688 11.609375 -10.953125 L 10.625 -8.265625 C 10.425781 -8.316406 10.222656 -8.351562 10.015625 -8.375 C 9.816406 -8.40625 9.597656 -8.421875 9.359375 -8.421875 C 8.648438 -8.421875 8.023438 -8.128906 7.484375 -7.546875 C 6.941406 -6.960938 6.53125 -6.222656 6.25 -5.328125 L 6.25 -2.1875 L 8.421875 -2.1875 L 8.421875 0 Z M 8.96875 -6.375 L 8.96875 -9.5625 L 9.453125 -10.953125 L 11.609375 -10.953125 L 11 -6.375 Z M 8.96875 -6.375 "/></g></g></g><g fill="#ff6a00" fill-opacity="0.4"><g transform="translate(41.143343, 261.977342)"><g><path d="M 0.265625 0 L 6.046875 -16.515625 L 9.859375 -16.515625 L 15.609375 0 L 11.671875 0 L 10.3125 -3.875 L 4.484375 -3.875 L 3.125 0 Z M 5.3125 -6.265625 L 9.484375 -6.265625 L 7.421875 -12.203125 L 7.375 -12.203125 Z M 5.3125 -6.265625 "/></g></g></g><g fill="#ff6a00" fill-opacity="0.4"><g transform="translate(57.030602, 261.977342)"><g><path d="M 2.78125 0 L 2.78125 -16.515625 L 6.59375 -16.515625 L 6.59375 -2.703125 L 15.421875 -2.703125 L 15.421875 0 Z M 2.78125 0 "/></g></g></g><g fill="#ff6a00" fill-opacity="0.4"><g transform="translate(72.917862, 261.977342)"><g><path d="M 2.15625 0 L 2.15625 -16.515625 L 14.078125 -16.515625 L 14.078125 -13.984375 L 5.96875 -13.984375 L 5.96875 -9.796875 L 12.8125 -9.796875 L 12.8125 -7.421875 L 5.96875 -7.421875 L 5.96875 -2.53125 L 14.765625 -2.53125 L 14.765625 0 Z M 2.15625 0 "/></g></g></g><g fill="#ff6a00" fill-opacity="0.4"><g transform="translate(88.805121, 261.977342)"><g><path d="M 0.46875 0 L 5.6875 -8.265625 L 0.46875 -16.515625 L 4.984375 -16.515625 L 8.6875 -10.640625 L 12.234375 -16.515625 L 15.421875 -16.515625 L 10.203125 -8.265625 L 15.421875 0 L 10.90625 0 L 7.1875 -5.890625 L 3.65625 0 Z M 0.46875 0 "/></g></g></g><g fill="#ff6a00" fill-opacity="0.4"><g transform="translate(104.692381, 261.977342)"><g><path d="M 0.265625 0 L 6.046875 -16.515625 L 9.859375 -16.515625 L 15.609375 0 L 11.671875 0 L 10.3125 -3.875 L 4.484375 -3.875 L 3.125 0 Z M 5.3125 -6.265625 L 9.484375 -6.265625 L 7.421875 -12.203125 L 7.375 -12.203125 Z M 5.3125 -6.265625 "/></g></g></g><g fill="#ff6a00" fill-opacity="0.4"><g transform="translate(120.57964, 261.977342)"><g><path d="M 1.421875 0 L 1.421875 -16.515625 L 4.84375 -16.515625 L 11.890625 -5.671875 L 11.90625 -5.671875 L 11.90625 -16.515625 L 14.46875 -16.515625 L 14.46875 0 L 11.046875 0 L 4 -10.84375 L 3.96875 -10.84375 L 3.96875 0 Z M 1.421875 0 "/></g></g></g><g fill="#ff6a00" fill-opacity="0.4"><g transform="translate(136.4669, 261.977342)"><g><path d="M 1.109375 0 L 1.109375 -16.515625 L 6.78125 -16.515625 C 9.414062 -16.515625 11.453125 -15.800781 12.890625 -14.375 C 14.335938 -12.945312 15.0625 -10.914062 15.0625 -8.28125 C 15.0625 -5.65625 14.335938 -3.617188 12.890625 -2.171875 C 11.441406 -0.722656 9.40625 0 6.78125 0 Z M 4.921875 -2.53125 L 6.09375 -2.53125 C 7.738281 -2.53125 8.945312 -2.972656 9.71875 -3.859375 C 10.5 -4.753906 10.890625 -6.21875 10.890625 -8.25 C 10.890625 -10.332031 10.507812 -11.804688 9.75 -12.671875 C 8.988281 -13.546875 7.769531 -13.984375 6.09375 -13.984375 L 4.921875 -13.984375 Z M 4.921875 -2.53125 "/></g></g></g><g fill="#ff6a00" fill-opacity="0.4"><g transform="translate(152.354159, 261.977342)"><g><path d="M 2.15625 0 L 2.15625 -16.515625 L 14.078125 -16.515625 L 14.078125 -13.984375 L 5.96875 -13.984375 L 5.96875 -9.796875 L 12.8125 -9.796875 L 12.8125 -7.421875 L 5.96875 -7.421875 L 5.96875 -2.53125 L 14.765625 -2.53125 L 14.765625 0 Z M 2.15625 0 "/></g></g></g><g fill="#ff6a00" fill-opacity="0.4"><g transform="translate(168.241418, 261.977342)"><g><path d="M 1.765625 0 L 1.765625 -16.515625 L 9 -16.515625 C 10.6875 -16.515625 11.992188 -16.148438 12.921875 -15.421875 C 13.859375 -14.691406 14.328125 -13.664062 14.328125 -12.34375 C 14.328125 -10.21875 13.164062 -8.625 10.84375 -7.5625 L 15.71875 0 L 11.1875 0 L 6.96875 -6.5625 L 5.578125 -6.5625 L 5.578125 0 Z M 5.578125 -8.953125 L 6.28125 -8.953125 C 7.476562 -8.953125 8.453125 -9.234375 9.203125 -9.796875 C 9.953125 -10.367188 10.328125 -11.113281 10.328125 -12.03125 C 10.328125 -12.695312 10.050781 -13.21875 9.5 -13.59375 C 9.144531 -13.851562 8.242188 -13.984375 6.796875 -13.984375 L 5.578125 -13.984375 Z M 5.578125 -8.953125 "/></g></g></g><g fill="#ff6a00" fill-opacity="0.4"><g transform="translate(184.128678, 261.977342)"><g/></g></g><g fill="#ff6a00" fill-opacity="0.4"><g transform="translate(200.015937, 261.977342)"><g><path d="M 0.265625 0 L 6.046875 -16.515625 L 9.859375 -16.515625 L 15.609375 0 L 11.671875 0 L 10.3125 -3.875 L 4.484375 -3.875 L 3.125 0 Z M 5.3125 -6.265625 L 9.484375 -6.265625 L 7.421875 -12.203125 L 7.375 -12.203125 Z M 5.3125 -6.265625 "/></g></g></g><g fill="#ff6a00" fill-opacity="0.4"><g transform="translate(215.903197, 261.977342)"><g><path d="M 2.78125 0 L 2.78125 -16.515625 L 6.59375 -16.515625 L 6.59375 -2.703125 L 15.421875 -2.703125 L 15.421875 0 Z M 2.78125 0 "/></g></g></g><g fill="#ff6a00" fill-opacity="0.4"><g transform="translate(231.790456, 261.977342)"><g><path d="M 1.765625 0 L 1.765625 -16.515625 L 8.5 -16.515625 C 12.3125 -16.515625 14.21875 -15.253906 14.21875 -12.734375 C 14.21875 -11.097656 13.09375 -9.8125 10.84375 -8.875 C 13.644531 -7.863281 15.046875 -6.304688 15.046875 -4.203125 C 15.046875 -2.890625 14.519531 -1.859375 13.46875 -1.109375 C 12.425781 -0.367188 10.988281 0 9.15625 0 Z M 5.578125 -9.828125 L 6.515625 -9.828125 C 7.679688 -9.828125 8.597656 -10.046875 9.265625 -10.484375 C 9.929688 -10.921875 10.265625 -11.515625 10.265625 -12.265625 C 10.265625 -12.910156 10.03125 -13.359375 9.5625 -13.609375 C 9.09375 -13.859375 8.253906 -13.984375 7.046875 -13.984375 L 5.578125 -13.984375 Z M 5.578125 -2.53125 L 7.640625 -2.53125 C 9.828125 -2.53125 10.921875 -3.265625 10.921875 -4.734375 C 10.921875 -5.578125 10.53125 -6.238281 9.75 -6.71875 C 8.96875 -7.195312 7.898438 -7.4375 6.546875 -7.4375 L 5.578125 -7.4375 Z M 5.578125 -2.53125 "/></g></g></g><g fill="#ff6a00" fill-opacity="0.4"><g transform="translate(247.677716, 261.977342)"><g><path d="M 1.765625 0 L 1.765625 -16.515625 L 9 -16.515625 C 10.6875 -16.515625 11.992188 -16.148438 12.921875 -15.421875 C 13.859375 -14.691406 14.328125 -13.664062 14.328125 -12.34375 C 14.328125 -10.21875 13.164062 -8.625 10.84375 -7.5625 L 15.71875 0 L 11.1875 0 L 6.96875 -6.5625 L 5.578125 -6.5625 L 5.578125 0 Z M 5.578125 -8.953125 L 6.28125 -8.953125 C 7.476562 -8.953125 8.453125 -9.234375 9.203125 -9.796875 C 9.953125 -10.367188 10.328125 -11.113281 10.328125 -12.03125 C 10.328125 -12.695312 10.050781 -13.21875 9.5 -13.59375 C 9.144531 -13.851562 8.242188 -13.984375 6.796875 -13.984375 L 5.578125 -13.984375 Z M 5.578125 -8.953125 "/></g></g></g><g fill="#ff6a00" fill-opacity="0.4"><g transform="translate(263.564975, 261.977342)"><g><path d="M 2.15625 0 L 2.15625 -16.515625 L 14.078125 -16.515625 L 14.078125 -13.984375 L 5.96875 -13.984375 L 5.96875 -9.796875 L 12.8125 -9.796875 L 12.8125 -7.421875 L 5.96875 -7.421875 L 5.96875 -2.53125 L 14.765625 -2.53125 L 14.765625 0 Z M 2.15625 0 "/></g></g></g><g fill="#ff6a00" fill-opacity="0.4"><g transform="translate(279.452235, 261.977342)"><g><path d="M 15.25 -0.46875 C 13.332031 0.113281 11.441406 0.40625 9.578125 0.40625 C 6.878906 0.40625 4.707031 -0.382812 3.0625 -1.96875 C 1.414062 -3.5625 0.59375 -5.660156 0.59375 -8.265625 C 0.59375 -10.679688 1.320312 -12.679688 2.78125 -14.265625 C 3.644531 -15.222656 4.65625 -15.90625 5.8125 -16.3125 C 6.96875 -16.71875 8.453125 -16.921875 10.265625 -16.921875 C 12.097656 -16.921875 13.757812 -16.757812 15.25 -16.4375 L 15.25 -13.484375 C 13.3125 -14.085938 11.6875 -14.390625 10.375 -14.390625 C 8.65625 -14.390625 7.28125 -13.828125 6.25 -12.703125 C 5.226562 -11.585938 4.71875 -10.085938 4.71875 -8.203125 C 4.71875 -6.472656 5.253906 -5.054688 6.328125 -3.953125 C 7.398438 -2.859375 8.773438 -2.3125 10.453125 -2.3125 C 11.890625 -2.3125 13.488281 -2.640625 15.25 -3.296875 Z M 15.25 -0.46875 "/></g></g></g><g fill="#ff6a00" fill-opacity="0.4"><g transform="translate(295.339494, 261.977342)"><g><path d="M 1.359375 0 L 1.359375 -16.515625 L 5.171875 -16.515625 L 5.171875 -9.71875 L 10.734375 -9.71875 L 10.734375 -16.515625 L 14.546875 -16.515625 L 14.546875 0 L 10.734375 0 L 10.734375 -7.34375 L 5.171875 -7.34375 L 5.171875 0 Z M 1.359375 0 "/></g></g></g><g fill="#ff6a00" fill-opacity="0.4"><g transform="translate(311.226754, 261.977342)"><g><path d="M 6.046875 0 L 6.046875 -13.984375 L 0.328125 -13.984375 L 0.328125 -16.515625 L 15.5625 -16.515625 L 15.5625 -13.984375 L 9.859375 -13.984375 L 9.859375 0 Z M 6.046875 0 "/></g></g></g><g fill="#3dcfb6" fill-opacity="1"><g transform="translate(40.910158, 261.744153)"><g><path d="M 0.265625 0 L 6.046875 -16.515625 L 9.859375 -16.515625 L 15.609375 0 L 11.671875 0 L 10.3125 -3.875 L 4.484375 -3.875 L 3.125 0 Z M 5.3125 -6.265625 L 9.484375 -6.265625 L 7.421875 -12.203125 L 7.375 -12.203125 Z M 5.3125 -6.265625 "/></g></g></g><g fill="#3dcfb6" fill-opacity="1"><g transform="translate(56.797418, 261.744153)"><g><path d="M 2.78125 0 L 2.78125 -16.515625 L 6.59375 -16.515625 L 6.59375 -2.703125 L 15.421875 -2.703125 L 15.421875 0 Z M 2.78125 0 "/></g></g></g><g fill="#3dcfb6" fill-opacity="1"><g transform="translate(72.684677, 261.744153)"><g><path d="M 2.15625 0 L 2.15625 -16.515625 L 14.078125 -16.515625 L 14.078125 -13.984375 L 5.96875 -13.984375 L 5.96875 -9.796875 L 12.8125 -9.796875 L 12.8125 -7.421875 L 5.96875 -7.421875 L 5.96875 -2.53125 L 14.765625 -2.53125 L 14.765625 0 Z M 2.15625 0 "/></g></g></g><g fill="#3dcfb6" fill-opacity="1"><g transform="translate(88.571936, 261.744153)"><g><path d="M 0.46875 0 L 5.6875 -8.265625 L 0.46875 -16.515625 L 4.984375 -16.515625 L 8.6875 -10.640625 L 12.234375 -16.515625 L 15.421875 -16.515625 L 10.203125 -8.265625 L 15.421875 0 L 10.90625 0 L 7.1875 -5.890625 L 3.65625 0 Z M 0.46875 0 "/></g></g></g><g fill="#3dcfb6" fill-opacity="1"><g transform="translate(104.459196, 261.744153)"><g><path d="M 0.265625 0 L 6.046875 -16.515625 L 9.859375 -16.515625 L 15.609375 0 L 11.671875 0 L 10.3125 -3.875 L 4.484375 -3.875 L 3.125 0 Z M 5.3125 -6.265625 L 9.484375 -6.265625 L 7.421875 -12.203125 L 7.375 -12.203125 Z M 5.3125 -6.265625 "/></g></g></g><g fill="#3dcfb6" fill-opacity="1"><g transform="translate(120.346455, 261.744153)"><g><path d="M 1.421875 0 L 1.421875 -16.515625 L 4.84375 -16.515625 L 11.890625 -5.671875 L 11.90625 -5.671875 L 11.90625 -16.515625 L 14.46875 -16.515625 L 14.46875 0 L 11.046875 0 L 4 -10.84375 L 3.96875 -10.84375 L 3.96875 0 Z M 1.421875 0 "/></g></g></g><g fill="#3dcfb6" fill-opacity="1"><g transform="translate(136.233715, 261.744153)"><g><path d="M 1.109375 0 L 1.109375 -16.515625 L 6.78125 -16.515625 C 9.414062 -16.515625 11.453125 -15.800781 12.890625 -14.375 C 14.335938 -12.945312 15.0625 -10.914062 15.0625 -8.28125 C 15.0625 -5.65625 14.335938 -3.617188 12.890625 -2.171875 C 11.441406 -0.722656 9.40625 0 6.78125 0 Z M 4.921875 -2.53125 L 6.09375 -2.53125 C 7.738281 -2.53125 8.945312 -2.972656 9.71875 -3.859375 C 10.5 -4.753906 10.890625 -6.21875 10.890625 -8.25 C 10.890625 -10.332031 10.507812 -11.804688 9.75 -12.671875 C 8.988281 -13.546875 7.769531 -13.984375 6.09375 -13.984375 L 4.921875 -13.984375 Z M 4.921875 -2.53125 "/></g></g></g><g fill="#3dcfb6" fill-opacity="1"><g transform="translate(152.120974, 261.744153)"><g><path d="M 2.15625 0 L 2.15625 -16.515625 L 14.078125 -16.515625 L 14.078125 -13.984375 L 5.96875 -13.984375 L 5.96875 -9.796875 L 12.8125 -9.796875 L 12.8125 -7.421875 L 5.96875 -7.421875 L 5.96875 -2.53125 L 14.765625 -2.53125 L 14.765625 0 Z M 2.15625 0 "/></g></g></g><g fill="#3dcfb6" fill-opacity="1"><g transform="translate(168.008234, 261.744153)"><g><path d="M 1.765625 0 L 1.765625 -16.515625 L 9 -16.515625 C 10.6875 -16.515625 11.992188 -16.148438 12.921875 -15.421875 C 13.859375 -14.691406 14.328125 -13.664062 14.328125 -12.34375 C 14.328125 -10.21875 13.164062 -8.625 10.84375 -7.5625 L 15.71875 0 L 11.1875 0 L 6.96875 -6.5625 L 5.578125 -6.5625 L 5.578125 0 Z M 5.578125 -8.953125 L 6.28125 -8.953125 C 7.476562 -8.953125 8.453125 -9.234375 9.203125 -9.796875 C 9.953125 -10.367188 10.328125 -11.113281 10.328125 -12.03125 C 10.328125 -12.695312 10.050781 -13.21875 9.5 -13.59375 C 9.144531 -13.851562 8.242188 -13.984375 6.796875 -13.984375 L 5.578125 -13.984375 Z M 5.578125 -8.953125 "/></g></g></g><g fill="#3dcfb6" fill-opacity="1"><g transform="translate(183.895493, 261.744153)"><g/></g></g><g fill="#3dcfb6" fill-opacity="1"><g transform="translate(199.782753, 261.744153)"><g><path d="M 0.265625 0 L 6.046875 -16.515625 L 9.859375 -16.515625 L 15.609375 0 L 11.671875 0 L 10.3125 -3.875 L 4.484375 -3.875 L 3.125 0 Z M 5.3125 -6.265625 L 9.484375 -6.265625 L 7.421875 -12.203125 L 7.375 -12.203125 Z M 5.3125 -6.265625 "/></g></g></g><g fill="#3dcfb6" fill-opacity="1"><g transform="translate(215.670012, 261.744153)"><g><path d="M 2.78125 0 L 2.78125 -16.515625 L 6.59375 -16.515625 L 6.59375 -2.703125 L 15.421875 -2.703125 L 15.421875 0 Z M 2.78125 0 "/></g></g></g><g fill="#3dcfb6" fill-opacity="1"><g transform="translate(231.557272, 261.744153)"><g><path d="M 1.765625 0 L 1.765625 -16.515625 L 8.5 -16.515625 C 12.3125 -16.515625 14.21875 -15.253906 14.21875 -12.734375 C 14.21875 -11.097656 13.09375 -9.8125 10.84375 -8.875 C 13.644531 -7.863281 15.046875 -6.304688 15.046875 -4.203125 C 15.046875 -2.890625 14.519531 -1.859375 13.46875 -1.109375 C 12.425781 -0.367188 10.988281 0 9.15625 0 Z M 5.578125 -9.828125 L 6.515625 -9.828125 C 7.679688 -9.828125 8.597656 -10.046875 9.265625 -10.484375 C 9.929688 -10.921875 10.265625 -11.515625 10.265625 -12.265625 C 10.265625 -12.910156 10.03125 -13.359375 9.5625 -13.609375 C 9.09375 -13.859375 8.253906 -13.984375 7.046875 -13.984375 L 5.578125 -13.984375 Z M 5.578125 -2.53125 L 7.640625 -2.53125 C 9.828125 -2.53125 10.921875 -3.265625 10.921875 -4.734375 C 10.921875 -5.578125 10.53125 -6.238281 9.75 -6.71875 C 8.96875 -7.195312 7.898438 -7.4375 6.546875 -7.4375 L 5.578125 -7.4375 Z M 5.578125 -2.53125 "/></g></g></g><g fill="#3dcfb6" fill-opacity="1"><g transform="translate(247.444531, 261.744153)"><g><path d="M 1.765625 0 L 1.765625 -16.515625 L 9 -16.515625 C 10.6875 -16.515625 11.992188 -16.148438 12.921875 -15.421875 C 13.859375 -14.691406 14.328125 -13.664062 14.328125 -12.34375 C 14.328125 -10.21875 13.164062 -8.625 10.84375 -7.5625 L 15.71875 0 L 11.1875 0 L 6.96875 -6.5625 L 5.578125 -6.5625 L 5.578125 0 Z M 5.578125 -8.953125 L 6.28125 -8.953125 C 7.476562 -8.953125 8.453125 -9.234375 9.203125 -9.796875 C 9.953125 -10.367188 10.328125 -11.113281 10.328125 -12.03125 C 10.328125 -12.695312 10.050781 -13.21875 9.5 -13.59375 C 9.144531 -13.851562 8.242188 -13.984375 6.796875 -13.984375 L 5.578125 -13.984375 Z M 5.578125 -8.953125 "/></g></g></g><g fill="#3dcfb6" fill-opacity="1"><g transform="translate(263.33179, 261.744153)"><g><path d="M 2.15625 0 L 2.15625 -16.515625 L 14.078125 -16.515625 L 14.078125 -13.984375 L 5.96875 -13.984375 L 5.96875 -9.796875 L 12.8125 -9.796875 L 12.8125 -7.421875 L 5.96875 -7.421875 L 5.96875 -2.53125 L 14.765625 -2.53125 L 14.765625 0 Z M 2.15625 0 "/></g></g></g><g fill="#3dcfb6" fill-opacity="1"><g transform="translate(279.21905, 261.744153)"><g><path d="M 15.25 -0.46875 C 13.332031 0.113281 11.441406 0.40625 9.578125 0.40625 C 6.878906 0.40625 4.707031 -0.382812 3.0625 -1.96875 C 1.414062 -3.5625 0.59375 -5.660156 0.59375 -8.265625 C 0.59375 -10.679688 1.320312 -12.679688 2.78125 -14.265625 C 3.644531 -15.222656 4.65625 -15.90625 5.8125 -16.3125 C 6.96875 -16.71875 8.453125 -16.921875 10.265625 -16.921875 C 12.097656 -16.921875 13.757812 -16.757812 15.25 -16.4375 L 15.25 -13.484375 C 13.3125 -14.085938 11.6875 -14.390625 10.375 -14.390625 C 8.65625 -14.390625 7.28125 -13.828125 6.25 -12.703125 C 5.226562 -11.585938 4.71875 -10.085938 4.71875 -8.203125 C 4.71875 -6.472656 5.253906 -5.054688 6.328125 -3.953125 C 7.398438 -2.859375 8.773438 -2.3125 10.453125 -2.3125 C 11.890625 -2.3125 13.488281 -2.640625 15.25 -3.296875 Z M 15.25 -0.46875 "/></g></g></g><g fill="#3dcfb6" fill-opacity="1"><g transform="translate(295.106309, 261.744153)"><g><path d="M 1.359375 0 L 1.359375 -16.515625 L 5.171875 -16.515625 L 5.171875 -9.71875 L 10.734375 -9.71875 L 10.734375 -16.515625 L 14.546875 -16.515625 L 14.546875 0 L 10.734375 0 L 10.734375 -7.34375 L 5.171875 -7.34375 L 5.171875 0 Z M 1.359375 0 "/></g></g></g><g fill="#3dcfb6" fill-opacity="1"><g transform="translate(310.993569, 261.744153)"><g><path d="M 6.046875 0 L 6.046875 -13.984375 L 0.328125 -13.984375 L 0.328125 -16.515625 L 15.5625 -16.515625 L 15.5625 -13.984375 L 9.859375 -13.984375 L 9.859375 0 Z M 6.046875 0 "/></g></g></g><g fill="#ff6a00" fill-opacity="0.4"><g transform="translate(61.171234, 188.22053)"><g><path d="M 8.140625 -41.96875 L 56.09375 -64.015625 L 56.09375 -51.5 L 25.046875 -37.796875 C 24.046875 -37.367188 23.082031 -37.046875 22.15625 -36.828125 C 21.226562 -36.617188 20.375 -36.441406 19.59375 -36.296875 C 18.664062 -36.148438 17.773438 -36.039062 16.921875 -35.96875 L 16.921875 -35.015625 C 17.773438 -34.941406 18.664062 -34.832031 19.59375 -34.6875 C 20.375 -34.539062 21.226562 -34.34375 22.15625 -34.09375 C 23.082031 -33.84375 24.046875 -33.503906 25.046875 -33.078125 L 56.09375 -19.171875 L 56.09375 -6.640625 L 8.140625 -28.578125 Z M 8.140625 -41.96875 "/></g></g></g><g fill="#3dcfb6" fill-opacity="1"><g transform="translate(60.224912, 187.274213)"><g><path d="M 8.140625 -41.96875 L 56.09375 -64.015625 L 56.09375 -51.5 L 25.046875 -37.796875 C 24.046875 -37.367188 23.082031 -37.046875 22.15625 -36.828125 C 21.226562 -36.617188 20.375 -36.441406 19.59375 -36.296875 C 18.664062 -36.148438 17.773438 -36.039062 16.921875 -35.96875 L 16.921875 -35.015625 C 17.773438 -34.941406 18.664062 -34.832031 19.59375 -34.6875 C 20.375 -34.539062 21.226562 -34.34375 22.15625 -34.09375 C 23.082031 -33.84375 24.046875 -33.503906 25.046875 -33.078125 L 56.09375 -19.171875 L 56.09375 -6.640625 L 8.140625 -28.578125 Z M 8.140625 -41.96875 "/></g></g></g><g fill="#ff6a00" fill-opacity="0.4"><g transform="translate(252.825837, 188.22053)"><g><path d="M 8.140625 -19.0625 L 39.1875 -32.875 C 40.1875 -33.300781 41.164062 -33.640625 42.125 -33.890625 C 43.09375 -34.140625 43.96875 -34.332031 44.75 -34.46875 C 45.601562 -34.539062 46.460938 -34.613281 47.328125 -34.6875 L 47.328125 -35.546875 C 46.460938 -35.617188 45.601562 -35.757812 44.75 -35.96875 C 43.96875 -36.113281 43.09375 -36.3125 42.125 -36.5625 C 41.164062 -36.8125 40.1875 -37.148438 39.1875 -37.578125 L 8.140625 -51.390625 L 8.140625 -63.921875 L 56.09375 -41.96875 L 56.09375 -28.578125 L 8.140625 -6.640625 Z M 8.140625 -19.0625 "/></g></g></g><g fill="#3dcfb6" fill-opacity="1"><g transform="translate(251.87952, 187.274213)"><g><path d="M 8.140625 -19.0625 L 39.1875 -32.875 C 40.1875 -33.300781 41.164062 -33.640625 42.125 -33.890625 C 43.09375 -34.140625 43.96875 -34.332031 44.75 -34.46875 C 45.601562 -34.539062 46.460938 -34.613281 47.328125 -34.6875 L 47.328125 -35.546875 C 46.460938 -35.617188 45.601562 -35.757812 44.75 -35.96875 C 43.96875 -36.113281 43.09375 -36.3125 42.125 -36.5625 C 41.164062 -36.8125 40.1875 -37.148438 39.1875 -37.578125 L 8.140625 -51.390625 L 8.140625 -63.921875 L 56.09375 -41.96875 L 56.09375 -28.578125 L 8.140625 -6.640625 Z M 8.140625 -19.0625 "/></g></g></g><g clip-path="url(#e488aff35a)"><path fill="#1b554b" d="M 242.070312 211.070312 L 232.984375 211.070312 L 232.984375 174.226562 C 232.984375 167.410156 227.453125 161.976562 220.734375 161.976562 L 197.71875 161.976562 L 197.71875 144.394531 C 194.65625 145.382812 191.300781 145.976562 187.84375 145.976562 C 184.089844 145.976562 180.53125 145.285156 177.273438 144.097656 L 177.273438 161.976562 L 154.257812 161.976562 C 147.539062 161.976562 142.007812 167.410156 142.007812 174.226562 L 142.007812 211.070312 L 132.921875 211.070312 C 131.835938 211.070312 130.945312 210.179688 130.945312 209.09375 L 130.945312 180.449219 C 130.945312 163.460938 144.675781 149.730469 161.566406 149.730469 L 173.320312 149.730469 L 173.320312 142.320312 C 163.839844 137.085938 157.515625 127.109375 157.515625 115.652344 L 157.515625 100.933594 C 157.515625 100.835938 157.515625 100.734375 157.515625 100.734375 C 158.207031 90.957031 151.789062 86.3125 151.589844 86.117188 C 151.097656 85.820312 150.703125 85.226562 150.703125 84.535156 C 150.703125 83.941406 150.996094 83.351562 151.492188 82.957031 C 167.199219 70.609375 180.433594 64.386719 190.804688 64.386719 C 198.804688 64.386719 202.855469 68.238281 204.4375 70.214844 C 204.832031 70.214844 205.226562 70.214844 205.621094 70.214844 C 219.453125 70.214844 223.796875 84.140625 224.09375 91.550781 C 224.6875 98.859375 223.304688 104.390625 220.144531 107.847656 C 219.550781 108.539062 218.859375 109.03125 218.265625 109.527344 L 218.265625 115.652344 C 218.265625 127.40625 211.550781 137.679688 201.671875 142.714844 L 201.671875 149.730469 L 213.328125 149.730469 C 230.21875 149.730469 244.046875 163.460938 244.046875 180.449219 L 244.046875 209.09375 C 244.046875 210.179688 243.15625 211.070312 242.070312 211.070312 Z M 187.84375 134.714844 C 182.902344 134.714844 178.953125 130.765625 178.953125 125.824219 C 178.953125 124.738281 179.839844 123.847656 180.929688 123.847656 C 182.015625 123.847656 182.902344 124.738281 182.902344 125.824219 C 182.902344 128.589844 185.078125 130.765625 187.84375 130.765625 C 190.609375 130.765625 192.78125 128.589844 192.78125 125.824219 C 192.78125 124.738281 193.671875 123.847656 194.757812 123.847656 C 195.84375 123.847656 196.730469 124.738281 196.730469 125.824219 C 196.730469 130.765625 192.78125 134.714844 187.84375 134.714844 Z M 161.46875 102.710938 L 161.46875 115.652344 C 161.46875 125.921875 167.296875 134.8125 175.890625 139.160156 C 176.085938 139.257812 176.1875 139.359375 176.285156 139.457031 C 179.839844 141.136719 183.695312 142.023438 187.84375 142.023438 C 191.695312 142.023438 195.347656 141.234375 198.707031 139.753906 C 198.804688 139.652344 198.90625 139.554688 199.101562 139.554688 C 208.089844 135.308594 214.316406 126.21875 214.316406 115.652344 L 214.316406 111.207031 C 213.425781 111.304688 212.636719 111.402344 212.339844 111.402344 C 212.140625 111.402344 211.945312 111.402344 211.945312 111.402344 C 211.449219 111.304688 210.957031 111.105469 210.5625 110.613281 C 210.265625 110.21875 210.066406 109.625 210.167969 109.132812 C 211.648438 97.773438 207.5 93.425781 205.128906 91.84375 C 202.066406 97.871094 196.039062 101.820312 189.519531 101.820312 C 187.84375 101.820312 186.164062 101.527344 184.484375 101.03125 C 182.3125 100.242188 179.742188 99.945312 176.976562 99.945312 C 171.542969 99.945312 166.210938 101.328125 163.050781 102.21875 C 162.359375 102.414062 161.863281 102.613281 161.46875 102.710938 Z M 161.46875 102.710938 " fill-opacity="1" fill-rule="evenodd"/></g><path fill="#3dcfb6" d="M 145.269531 215.515625 L 145.269531 174.226562 C 145.269531 169.289062 149.320312 165.238281 154.257812 165.238281 L 220.734375 165.238281 C 225.675781 165.238281 229.625 169.289062 229.625 174.226562 L 229.625 215.515625 Z M 187.445312 204.648438 C 179.542969 204.648438 173.125 198.230469 173.125 190.425781 C 173.125 182.523438 179.542969 176.101562 187.445312 176.101562 C 195.347656 176.101562 201.769531 182.523438 201.769531 190.425781 C 201.769531 198.230469 195.347656 204.648438 187.445312 204.648438 Z M 187.445312 180.054688 C 181.71875 180.054688 177.074219 184.695312 177.074219 190.425781 C 177.074219 196.054688 181.71875 200.699219 187.445312 200.699219 C 193.175781 200.699219 197.820312 196.054688 197.820312 190.425781 C 197.820312 184.695312 193.175781 180.054688 187.445312 180.054688 Z M 187.445312 180.054688 " fill-opacity="1" fill-rule="evenodd"/><path fill="#3dcfb6" d="M 234.664062 232.902344 L 140.328125 232.902344 C 139.242188 232.902344 138.355469 232.011719 138.355469 230.925781 L 138.355469 220.75 C 138.355469 219.664062 139.242188 218.773438 140.328125 218.773438 L 234.664062 218.773438 C 235.75 218.773438 236.640625 219.664062 236.640625 220.75 L 236.640625 230.925781 C 236.640625 232.011719 235.75 232.902344 234.664062 232.902344 Z M 234.664062 232.902344 " fill-opacity="1" fill-rule="evenodd"/><g fill="#ff6a00" fill-opacity="0.4"><g transform="translate(105.268276, 312.466767)"><g><path d="M 7.890625 -4.109375 C 7.890625 -4.585938 7.796875 -4.960938 7.609375 -5.234375 C 7.421875 -5.515625 7.15625 -5.710938 6.8125 -5.828125 C 6.476562 -5.953125 6.085938 -6.015625 5.640625 -6.015625 L 4.3125 -6.015625 L 4.3125 -2.34375 L 5.5 -2.34375 C 5.8125 -2.34375 6.109375 -2.363281 6.390625 -2.40625 C 6.679688 -2.457031 6.9375 -2.546875 7.15625 -2.671875 C 7.382812 -2.796875 7.5625 -2.972656 7.6875 -3.203125 C 7.820312 -3.429688 7.890625 -3.734375 7.890625 -4.109375 Z M 7.375 -9.796875 C 7.375 -10.335938 7.207031 -10.726562 6.875 -10.96875 C 6.539062 -11.207031 6.019531 -11.328125 5.3125 -11.328125 L 4.3125 -11.328125 L 4.3125 -8.171875 L 5.40625 -8.171875 C 6.101562 -8.171875 6.601562 -8.296875 6.90625 -8.546875 C 7.21875 -8.804688 7.375 -9.222656 7.375 -9.796875 Z M 11.203125 -3.984375 C 11.203125 -3.203125 11.050781 -2.550781 10.75 -2.03125 C 10.445312 -1.507812 10.035156 -1.101562 9.515625 -0.8125 C 8.992188 -0.519531 8.394531 -0.3125 7.71875 -0.1875 C 7.050781 -0.0625 6.347656 0 5.609375 0 L 1.09375 0 L 1.09375 -13.59375 L 5.40625 -13.59375 C 6.101562 -13.59375 6.765625 -13.535156 7.390625 -13.421875 C 8.015625 -13.304688 8.566406 -13.117188 9.046875 -12.859375 C 9.535156 -12.597656 9.921875 -12.242188 10.203125 -11.796875 C 10.484375 -11.347656 10.625 -10.789062 10.625 -10.125 C 10.625 -9.582031 10.507812 -9.113281 10.28125 -8.71875 C 10.050781 -8.320312 9.742188 -8 9.359375 -7.75 C 8.984375 -7.5 8.570312 -7.316406 8.125 -7.203125 C 8.601562 -7.117188 9.082031 -6.960938 9.5625 -6.734375 C 10.039062 -6.515625 10.429688 -6.179688 10.734375 -5.734375 C 11.046875 -5.296875 11.203125 -4.710938 11.203125 -3.984375 Z M 11.203125 -3.984375 "/></g></g></g><g fill="#ff6a00" fill-opacity="0.4"><g transform="translate(117.038673, 312.466767)"><g><path d="M 4.0625 -4.3125 C 4.132812 -3.738281 4.28125 -3.273438 4.5 -2.921875 C 4.726562 -2.578125 5.019531 -2.320312 5.375 -2.15625 C 5.726562 -2 6.125 -1.921875 6.5625 -1.921875 C 7.039062 -1.921875 7.5 -2 7.9375 -2.15625 C 8.382812 -2.3125 8.816406 -2.519531 9.234375 -2.78125 L 10.484375 -1.09375 C 9.992188 -0.675781 9.398438 -0.332031 8.703125 -0.0625 C 8.003906 0.195312 7.207031 0.328125 6.3125 0.328125 C 5.125 0.328125 4.128906 0.09375 3.328125 -0.375 C 2.523438 -0.851562 1.921875 -1.503906 1.515625 -2.328125 C 1.109375 -3.160156 0.90625 -4.117188 0.90625 -5.203125 C 0.90625 -6.222656 1.097656 -7.15625 1.484375 -8 C 1.878906 -8.84375 2.453125 -9.515625 3.203125 -10.015625 C 3.960938 -10.515625 4.890625 -10.765625 5.984375 -10.765625 C 6.984375 -10.765625 7.847656 -10.550781 8.578125 -10.125 C 9.304688 -9.695312 9.867188 -9.082031 10.265625 -8.28125 C 10.671875 -7.488281 10.875 -6.535156 10.875 -5.421875 C 10.875 -5.242188 10.867188 -5.050781 10.859375 -4.84375 C 10.847656 -4.644531 10.832031 -4.46875 10.8125 -4.3125 Z M 5.984375 -8.6875 C 5.429688 -8.6875 4.984375 -8.484375 4.640625 -8.078125 C 4.296875 -7.679688 4.085938 -7.046875 4.015625 -6.171875 L 7.84375 -6.171875 C 7.84375 -6.929688 7.695312 -7.539062 7.40625 -8 C 7.125 -8.457031 6.648438 -8.6875 5.984375 -8.6875 Z M 5.984375 -8.6875 "/></g></g></g><g fill="#ff6a00" fill-opacity="0.4"><g transform="translate(128.809069, 312.466767)"><g><path d="M 1.46875 0 L 1.46875 -2.078125 L 2.84375 -2.078125 L 2.84375 -8.359375 L 1.46875 -8.359375 L 1.46875 -10.421875 L 5.203125 -10.421875 L 5.78125 -8.078125 C 6.15625 -8.972656 6.628906 -9.640625 7.203125 -10.078125 C 7.785156 -10.515625 8.492188 -10.734375 9.328125 -10.734375 C 9.679688 -10.734375 9.992188 -10.703125 10.265625 -10.640625 C 10.546875 -10.585938 10.804688 -10.515625 11.046875 -10.421875 L 10.109375 -7.859375 C 9.921875 -7.910156 9.726562 -7.945312 9.53125 -7.96875 C 9.34375 -8 9.132812 -8.015625 8.90625 -8.015625 C 8.226562 -8.015625 7.628906 -7.734375 7.109375 -7.171875 C 6.597656 -6.617188 6.210938 -5.914062 5.953125 -5.0625 L 5.953125 -2.078125 L 8 -2.078125 L 8 0 Z M 8.53125 -6.0625 L 8.53125 -9.109375 L 8.984375 -10.421875 L 11.046875 -10.421875 L 10.46875 -6.0625 Z M 8.53125 -6.0625 "/></g></g></g><g fill="#ff6a00" fill-opacity="0.4"><g transform="translate(140.579466, 312.466767)"><g><path d="M 6.8125 -14.5625 L 6.8125 -3.28125 C 6.8125 -2.863281 6.929688 -2.5625 7.171875 -2.375 C 7.410156 -2.195312 7.738281 -2.109375 8.15625 -2.109375 C 8.425781 -2.109375 8.679688 -2.140625 8.921875 -2.203125 C 9.171875 -2.265625 9.40625 -2.335938 9.625 -2.421875 L 10.375 -0.359375 C 10.019531 -0.171875 9.59375 -0.0078125 9.09375 0.125 C 8.59375 0.257812 8.015625 0.328125 7.359375 0.328125 C 6.097656 0.328125 5.171875 -0.03125 4.578125 -0.75 C 3.992188 -1.46875 3.703125 -2.4375 3.703125 -3.65625 L 3.703125 -12.4375 L 0.640625 -12.4375 L 0.640625 -14.5625 Z M 6.8125 -14.5625 "/></g></g></g><g fill="#ff6a00" fill-opacity="0.4"><g transform="translate(152.349862, 312.466767)"><g><path d="M 7.734375 -10.421875 L 7.734375 -2.125 L 10.390625 -2.125 L 10.390625 0 L 1.6875 0 L 1.6875 -2.125 L 4.640625 -2.125 L 4.640625 -8.296875 L 1.78125 -8.296875 L 1.78125 -10.421875 Z M 5.875 -15.875 C 6.40625 -15.875 6.835938 -15.707031 7.171875 -15.375 C 7.515625 -15.039062 7.6875 -14.625 7.6875 -14.125 C 7.6875 -13.632812 7.515625 -13.21875 7.171875 -12.875 C 6.835938 -12.539062 6.40625 -12.375 5.875 -12.375 C 5.320312 -12.375 4.875 -12.539062 4.53125 -12.875 C 4.1875 -13.21875 4.015625 -13.632812 4.015625 -14.125 C 4.015625 -14.625 4.1875 -15.039062 4.53125 -15.375 C 4.875 -15.707031 5.320312 -15.875 5.875 -15.875 Z M 5.875 -15.875 "/></g></g></g><g fill="#ff6a00" fill-opacity="0.4"><g transform="translate(164.120258, 312.466767)"><g><path d="M 1.375 0 L 1.375 -10.421875 L 4.078125 -10.421875 L 4.296875 -9.21875 C 4.765625 -9.738281 5.253906 -10.125 5.765625 -10.375 C 6.285156 -10.632812 6.875 -10.765625 7.53125 -10.765625 C 8.425781 -10.765625 9.128906 -10.492188 9.640625 -9.953125 C 10.148438 -9.410156 10.40625 -8.644531 10.40625 -7.65625 L 10.40625 0 L 7.296875 0 L 7.296875 -6.765625 C 7.296875 -7.191406 7.265625 -7.53125 7.203125 -7.78125 C 7.148438 -8.03125 7.050781 -8.207031 6.90625 -8.3125 C 6.757812 -8.425781 6.554688 -8.484375 6.296875 -8.484375 C 6.078125 -8.484375 5.863281 -8.429688 5.65625 -8.328125 C 5.457031 -8.234375 5.257812 -8.097656 5.0625 -7.921875 C 4.863281 -7.742188 4.664062 -7.535156 4.46875 -7.296875 L 4.46875 0 Z M 1.375 0 "/></g></g></g><g fill="#ff6a00" fill-opacity="0.4"><g transform="translate(175.890655, 312.466767)"><g/></g></g><g fill="#ff6a00" fill-opacity="0.4"><g transform="translate(187.661051, 312.466767)"><g><path d="M 6.390625 0.328125 C 5.097656 0.328125 4.007812 0.0546875 3.125 -0.484375 C 2.25 -1.035156 1.582031 -1.84375 1.125 -2.90625 C 0.664062 -3.96875 0.4375 -5.273438 0.4375 -6.828125 C 0.4375 -7.984375 0.597656 -9.003906 0.921875 -9.890625 C 1.242188 -10.773438 1.691406 -11.515625 2.265625 -12.109375 C 2.847656 -12.710938 3.519531 -13.164062 4.28125 -13.46875 C 5.050781 -13.78125 5.878906 -13.9375 6.765625 -13.9375 C 7.753906 -13.9375 8.585938 -13.78125 9.265625 -13.46875 C 9.953125 -13.164062 10.5625 -12.765625 11.09375 -12.265625 L 9.40625 -10.515625 C 8.988281 -10.878906 8.585938 -11.148438 8.203125 -11.328125 C 7.828125 -11.503906 7.398438 -11.59375 6.921875 -11.59375 C 6.460938 -11.59375 6.039062 -11.503906 5.65625 -11.328125 C 5.269531 -11.148438 4.9375 -10.867188 4.65625 -10.484375 C 4.375 -10.097656 4.15625 -9.601562 4 -9 C 3.84375 -8.394531 3.765625 -7.664062 3.765625 -6.8125 C 3.765625 -5.625 3.859375 -4.679688 4.046875 -3.984375 C 4.242188 -3.285156 4.535156 -2.78125 4.921875 -2.46875 C 5.316406 -2.164062 5.816406 -2.015625 6.421875 -2.015625 C 6.734375 -2.015625 7.03125 -2.050781 7.3125 -2.125 C 7.59375 -2.207031 7.859375 -2.3125 8.109375 -2.4375 L 8.109375 -5.546875 L 6.390625 -5.546875 L 6.078125 -7.796875 L 11.140625 -7.796875 L 11.140625 -1.046875 C 10.460938 -0.617188 9.734375 -0.28125 8.953125 -0.03125 C 8.171875 0.207031 7.316406 0.328125 6.390625 0.328125 Z M 6.390625 0.328125 "/></g></g></g><g fill="#ff6a00" fill-opacity="0.4"><g transform="translate(199.431448, 312.466767)"><g><path d="M 4.0625 -4.3125 C 4.132812 -3.738281 4.28125 -3.273438 4.5 -2.921875 C 4.726562 -2.578125 5.019531 -2.320312 5.375 -2.15625 C 5.726562 -2 6.125 -1.921875 6.5625 -1.921875 C 7.039062 -1.921875 7.5 -2 7.9375 -2.15625 C 8.382812 -2.3125 8.816406 -2.519531 9.234375 -2.78125 L 10.484375 -1.09375 C 9.992188 -0.675781 9.398438 -0.332031 8.703125 -0.0625 C 8.003906 0.195312 7.207031 0.328125 6.3125 0.328125 C 5.125 0.328125 4.128906 0.09375 3.328125 -0.375 C 2.523438 -0.851562 1.921875 -1.503906 1.515625 -2.328125 C 1.109375 -3.160156 0.90625 -4.117188 0.90625 -5.203125 C 0.90625 -6.222656 1.097656 -7.15625 1.484375 -8 C 1.878906 -8.84375 2.453125 -9.515625 3.203125 -10.015625 C 3.960938 -10.515625 4.890625 -10.765625 5.984375 -10.765625 C 6.984375 -10.765625 7.847656 -10.550781 8.578125 -10.125 C 9.304688 -9.695312 9.867188 -9.082031 10.265625 -8.28125 C 10.671875 -7.488281 10.875 -6.535156 10.875 -5.421875 C 10.875 -5.242188 10.867188 -5.050781 10.859375 -4.84375 C 10.847656 -4.644531 10.832031 -4.46875 10.8125 -4.3125 Z M 5.984375 -8.6875 C 5.429688 -8.6875 4.984375 -8.484375 4.640625 -8.078125 C 4.296875 -7.679688 4.085938 -7.046875 4.015625 -6.171875 L 7.84375 -6.171875 C 7.84375 -6.929688 7.695312 -7.539062 7.40625 -8 C 7.125 -8.457031 6.648438 -8.6875 5.984375 -8.6875 Z M 5.984375 -8.6875 "/></g></g></g><g fill="#ff6a00" fill-opacity="0.4"><g transform="translate(211.201844, 312.466767)"><g><path d="M 1.46875 0 L 1.46875 -2.078125 L 2.84375 -2.078125 L 2.84375 -8.359375 L 1.46875 -8.359375 L 1.46875 -10.421875 L 5.203125 -10.421875 L 5.78125 -8.078125 C 6.15625 -8.972656 6.628906 -9.640625 7.203125 -10.078125 C 7.785156 -10.515625 8.492188 -10.734375 9.328125 -10.734375 C 9.679688 -10.734375 9.992188 -10.703125 10.265625 -10.640625 C 10.546875 -10.585938 10.804688 -10.515625 11.046875 -10.421875 L 10.109375 -7.859375 C 9.921875 -7.910156 9.726562 -7.945312 9.53125 -7.96875 C 9.34375 -8 9.132812 -8.015625 8.90625 -8.015625 C 8.226562 -8.015625 7.628906 -7.734375 7.109375 -7.171875 C 6.597656 -6.617188 6.210938 -5.914062 5.953125 -5.0625 L 5.953125 -2.078125 L 8 -2.078125 L 8 0 Z M 8.53125 -6.0625 L 8.53125 -9.109375 L 8.984375 -10.421875 L 11.046875 -10.421875 L 10.46875 -6.0625 Z M 8.53125 -6.0625 "/></g></g></g><g fill="#ff6a00" fill-opacity="0.4"><g transform="translate(222.97224, 312.466767)"><g><path d="M 9.078125 -10.765625 C 9.578125 -10.765625 9.984375 -10.660156 10.296875 -10.453125 C 10.617188 -10.242188 10.859375 -9.914062 11.015625 -9.46875 C 11.171875 -9.019531 11.25 -8.4375 11.25 -7.71875 L 11.25 0 L 8.59375 0 L 8.59375 -7.359375 C 8.59375 -7.722656 8.554688 -7.976562 8.484375 -8.125 C 8.421875 -8.28125 8.285156 -8.359375 8.078125 -8.359375 C 7.910156 -8.359375 7.738281 -8.3125 7.5625 -8.21875 C 7.394531 -8.125 7.207031 -7.945312 7 -7.6875 L 7 0 L 4.8125 0 L 4.8125 -7.359375 C 4.8125 -7.722656 4.773438 -7.976562 4.703125 -8.125 C 4.640625 -8.28125 4.503906 -8.359375 4.296875 -8.359375 C 4.128906 -8.359375 3.957031 -8.3125 3.78125 -8.21875 C 3.613281 -8.125 3.425781 -7.945312 3.21875 -7.6875 L 3.21875 0 L 0.515625 0 L 0.515625 -10.421875 L 2.796875 -10.421875 L 3 -9.40625 C 3.332031 -9.851562 3.664062 -10.191406 4 -10.421875 C 4.332031 -10.648438 4.726562 -10.765625 5.1875 -10.765625 C 5.570312 -10.765625 5.90625 -10.664062 6.1875 -10.46875 C 6.46875 -10.269531 6.664062 -9.957031 6.78125 -9.53125 C 7.09375 -9.894531 7.4375 -10.191406 7.8125 -10.421875 C 8.195312 -10.648438 8.617188 -10.765625 9.078125 -10.765625 Z M 9.078125 -10.765625 "/></g></g></g><g fill="#ff6a00" fill-opacity="0.4"><g transform="translate(234.742637, 312.466767)"><g><path d="M 10.140625 -3 C 10.140625 -2.601562 10.191406 -2.316406 10.296875 -2.140625 C 10.410156 -1.972656 10.585938 -1.84375 10.828125 -1.75 L 10.1875 0.296875 C 9.570312 0.234375 9.050781 0.0976562 8.625 -0.109375 C 8.207031 -0.328125 7.878906 -0.648438 7.640625 -1.078125 C 7.242188 -0.597656 6.734375 -0.242188 6.109375 -0.015625 C 5.492188 0.210938 4.859375 0.328125 4.203125 0.328125 C 3.128906 0.328125 2.273438 0.0234375 1.640625 -0.578125 C 1.003906 -1.191406 0.6875 -1.976562 0.6875 -2.9375 C 0.6875 -4.070312 1.128906 -4.945312 2.015625 -5.5625 C 2.898438 -6.175781 4.148438 -6.484375 5.765625 -6.484375 L 7.15625 -6.484375 L 7.15625 -6.875 C 7.15625 -7.414062 6.976562 -7.816406 6.625 -8.078125 C 6.28125 -8.347656 5.773438 -8.484375 5.109375 -8.484375 C 4.773438 -8.484375 4.34375 -8.429688 3.8125 -8.328125 C 3.289062 -8.234375 2.769531 -8.097656 2.25 -7.921875 L 1.53125 -9.984375 C 2.207031 -10.242188 2.910156 -10.4375 3.640625 -10.5625 C 4.367188 -10.695312 5.019531 -10.765625 5.59375 -10.765625 C 7.144531 -10.765625 8.289062 -10.445312 9.03125 -9.8125 C 9.769531 -9.1875 10.140625 -8.273438 10.140625 -7.078125 Z M 5.28125 -1.890625 C 5.613281 -1.890625 5.960938 -1.988281 6.328125 -2.1875 C 6.691406 -2.382812 6.96875 -2.664062 7.15625 -3.03125 L 7.15625 -4.71875 L 6.390625 -4.71875 C 5.535156 -4.71875 4.90625 -4.582031 4.5 -4.3125 C 4.09375 -4.050781 3.890625 -3.664062 3.890625 -3.15625 C 3.890625 -2.757812 4.007812 -2.445312 4.25 -2.21875 C 4.5 -2 4.84375 -1.890625 5.28125 -1.890625 Z M 5.28125 -1.890625 "/></g></g></g><g fill="#ff6a00" fill-opacity="0.4"><g transform="translate(246.513033, 312.466767)"><g><path d="M 1.375 0 L 1.375 -10.421875 L 4.078125 -10.421875 L 4.296875 -9.21875 C 4.765625 -9.738281 5.253906 -10.125 5.765625 -10.375 C 6.285156 -10.632812 6.875 -10.765625 7.53125 -10.765625 C 8.425781 -10.765625 9.128906 -10.492188 9.640625 -9.953125 C 10.148438 -9.410156 10.40625 -8.644531 10.40625 -7.65625 L 10.40625 0 L 7.296875 0 L 7.296875 -6.765625 C 7.296875 -7.191406 7.265625 -7.53125 7.203125 -7.78125 C 7.148438 -8.03125 7.050781 -8.207031 6.90625 -8.3125 C 6.757812 -8.425781 6.554688 -8.484375 6.296875 -8.484375 C 6.078125 -8.484375 5.863281 -8.429688 5.65625 -8.328125 C 5.457031 -8.234375 5.257812 -8.097656 5.0625 -7.921875 C 4.863281 -7.742188 4.664062 -7.535156 4.46875 -7.296875 L 4.46875 0 Z M 1.375 0 "/></g></g></g><g fill="#ff6a00" fill-opacity="0.4"><g transform="translate(258.28343, 312.466767)"><g><path d="M 11.21875 -10.421875 L 7.75 0 C 7.445312 0.925781 7.039062 1.695312 6.53125 2.3125 C 6.019531 2.9375 5.382812 3.421875 4.625 3.765625 C 3.875 4.109375 2.96875 4.304688 1.90625 4.359375 L 1.5625 2.171875 C 2.25 2.085938 2.800781 1.960938 3.21875 1.796875 C 3.644531 1.628906 3.984375 1.398438 4.234375 1.109375 C 4.492188 0.816406 4.722656 0.445312 4.921875 0 L 3.859375 0 L 0.546875 -10.421875 L 3.828125 -10.421875 L 5.84375 -1.984375 L 8.046875 -10.421875 Z M 11.21875 -10.421875 "/></g></g></g><g fill="#3dcfb6" fill-opacity="1"><g transform="translate(105.094737, 312.293211)"><g><path d="M 7.890625 -4.109375 C 7.890625 -4.585938 7.796875 -4.960938 7.609375 -5.234375 C 7.421875 -5.515625 7.15625 -5.710938 6.8125 -5.828125 C 6.476562 -5.953125 6.085938 -6.015625 5.640625 -6.015625 L 4.3125 -6.015625 L 4.3125 -2.34375 L 5.5 -2.34375 C 5.8125 -2.34375 6.109375 -2.363281 6.390625 -2.40625 C 6.679688 -2.457031 6.9375 -2.546875 7.15625 -2.671875 C 7.382812 -2.796875 7.5625 -2.972656 7.6875 -3.203125 C 7.820312 -3.429688 7.890625 -3.734375 7.890625 -4.109375 Z M 7.375 -9.796875 C 7.375 -10.335938 7.207031 -10.726562 6.875 -10.96875 C 6.539062 -11.207031 6.019531 -11.328125 5.3125 -11.328125 L 4.3125 -11.328125 L 4.3125 -8.171875 L 5.40625 -8.171875 C 6.101562 -8.171875 6.601562 -8.296875 6.90625 -8.546875 C 7.21875 -8.804688 7.375 -9.222656 7.375 -9.796875 Z M 11.203125 -3.984375 C 11.203125 -3.203125 11.050781 -2.550781 10.75 -2.03125 C 10.445312 -1.507812 10.035156 -1.101562 9.515625 -0.8125 C 8.992188 -0.519531 8.394531 -0.3125 7.71875 -0.1875 C 7.050781 -0.0625 6.347656 0 5.609375 0 L 1.09375 0 L 1.09375 -13.59375 L 5.40625 -13.59375 C 6.101562 -13.59375 6.765625 -13.535156 7.390625 -13.421875 C 8.015625 -13.304688 8.566406 -13.117188 9.046875 -12.859375 C 9.535156 -12.597656 9.921875 -12.242188 10.203125 -11.796875 C 10.484375 -11.347656 10.625 -10.789062 10.625 -10.125 C 10.625 -9.582031 10.507812 -9.113281 10.28125 -8.71875 C 10.050781 -8.320312 9.742188 -8 9.359375 -7.75 C 8.984375 -7.5 8.570312 -7.316406 8.125 -7.203125 C 8.601562 -7.117188 9.082031 -6.960938 9.5625 -6.734375 C 10.039062 -6.515625 10.429688 -6.179688 10.734375 -5.734375 C 11.046875 -5.296875 11.203125 -4.710938 11.203125 -3.984375 Z M 11.203125 -3.984375 "/></g></g></g><g fill="#3dcfb6" fill-opacity="1"><g transform="translate(116.865134, 312.293211)"><g><path d="M 4.0625 -4.3125 C 4.132812 -3.738281 4.28125 -3.273438 4.5 -2.921875 C 4.726562 -2.578125 5.019531 -2.320312 5.375 -2.15625 C 5.726562 -2 6.125 -1.921875 6.5625 -1.921875 C 7.039062 -1.921875 7.5 -2 7.9375 -2.15625 C 8.382812 -2.3125 8.816406 -2.519531 9.234375 -2.78125 L 10.484375 -1.09375 C 9.992188 -0.675781 9.398438 -0.332031 8.703125 -0.0625 C 8.003906 0.195312 7.207031 0.328125 6.3125 0.328125 C 5.125 0.328125 4.128906 0.09375 3.328125 -0.375 C 2.523438 -0.851562 1.921875 -1.503906 1.515625 -2.328125 C 1.109375 -3.160156 0.90625 -4.117188 0.90625 -5.203125 C 0.90625 -6.222656 1.097656 -7.15625 1.484375 -8 C 1.878906 -8.84375 2.453125 -9.515625 3.203125 -10.015625 C 3.960938 -10.515625 4.890625 -10.765625 5.984375 -10.765625 C 6.984375 -10.765625 7.847656 -10.550781 8.578125 -10.125 C 9.304688 -9.695312 9.867188 -9.082031 10.265625 -8.28125 C 10.671875 -7.488281 10.875 -6.535156 10.875 -5.421875 C 10.875 -5.242188 10.867188 -5.050781 10.859375 -4.84375 C 10.847656 -4.644531 10.832031 -4.46875 10.8125 -4.3125 Z M 5.984375 -8.6875 C 5.429688 -8.6875 4.984375 -8.484375 4.640625 -8.078125 C 4.296875 -7.679688 4.085938 -7.046875 4.015625 -6.171875 L 7.84375 -6.171875 C 7.84375 -6.929688 7.695312 -7.539062 7.40625 -8 C 7.125 -8.457031 6.648438 -8.6875 5.984375 -8.6875 Z M 5.984375 -8.6875 "/></g></g></g><g fill="#3dcfb6" fill-opacity="1"><g transform="translate(128.63553, 312.293211)"><g><path d="M 1.46875 0 L 1.46875 -2.078125 L 2.84375 -2.078125 L 2.84375 -8.359375 L 1.46875 -8.359375 L 1.46875 -10.421875 L 5.203125 -10.421875 L 5.78125 -8.078125 C 6.15625 -8.972656 6.628906 -9.640625 7.203125 -10.078125 C 7.785156 -10.515625 8.492188 -10.734375 9.328125 -10.734375 C 9.679688 -10.734375 9.992188 -10.703125 10.265625 -10.640625 C 10.546875 -10.585938 10.804688 -10.515625 11.046875 -10.421875 L 10.109375 -7.859375 C 9.921875 -7.910156 9.726562 -7.945312 9.53125 -7.96875 C 9.34375 -8 9.132812 -8.015625 8.90625 -8.015625 C 8.226562 -8.015625 7.628906 -7.734375 7.109375 -7.171875 C 6.597656 -6.617188 6.210938 -5.914062 5.953125 -5.0625 L 5.953125 -2.078125 L 8 -2.078125 L 8 0 Z M 8.53125 -6.0625 L 8.53125 -9.109375 L 8.984375 -10.421875 L 11.046875 -10.421875 L 10.46875 -6.0625 Z M 8.53125 -6.0625 "/></g></g></g><g fill="#3dcfb6" fill-opacity="1"><g transform="translate(140.405926, 312.293211)"><g><path d="M 6.8125 -14.5625 L 6.8125 -3.28125 C 6.8125 -2.863281 6.929688 -2.5625 7.171875 -2.375 C 7.410156 -2.195312 7.738281 -2.109375 8.15625 -2.109375 C 8.425781 -2.109375 8.679688 -2.140625 8.921875 -2.203125 C 9.171875 -2.265625 9.40625 -2.335938 9.625 -2.421875 L 10.375 -0.359375 C 10.019531 -0.171875 9.59375 -0.0078125 9.09375 0.125 C 8.59375 0.257812 8.015625 0.328125 7.359375 0.328125 C 6.097656 0.328125 5.171875 -0.03125 4.578125 -0.75 C 3.992188 -1.46875 3.703125 -2.4375 3.703125 -3.65625 L 3.703125 -12.4375 L 0.640625 -12.4375 L 0.640625 -14.5625 Z M 6.8125 -14.5625 "/></g></g></g><g fill="#3dcfb6" fill-opacity="1"><g transform="translate(152.176323, 312.293211)"><g><path d="M 7.734375 -10.421875 L 7.734375 -2.125 L 10.390625 -2.125 L 10.390625 0 L 1.6875 0 L 1.6875 -2.125 L 4.640625 -2.125 L 4.640625 -8.296875 L 1.78125 -8.296875 L 1.78125 -10.421875 Z M 5.875 -15.875 C 6.40625 -15.875 6.835938 -15.707031 7.171875 -15.375 C 7.515625 -15.039062 7.6875 -14.625 7.6875 -14.125 C 7.6875 -13.632812 7.515625 -13.21875 7.171875 -12.875 C 6.835938 -12.539062 6.40625 -12.375 5.875 -12.375 C 5.320312 -12.375 4.875 -12.539062 4.53125 -12.875 C 4.1875 -13.21875 4.015625 -13.632812 4.015625 -14.125 C 4.015625 -14.625 4.1875 -15.039062 4.53125 -15.375 C 4.875 -15.707031 5.320312 -15.875 5.875 -15.875 Z M 5.875 -15.875 "/></g></g></g><g fill="#3dcfb6" fill-opacity="1"><g transform="translate(163.946719, 312.293211)"><g><path d="M 1.375 0 L 1.375 -10.421875 L 4.078125 -10.421875 L 4.296875 -9.21875 C 4.765625 -9.738281 5.253906 -10.125 5.765625 -10.375 C 6.285156 -10.632812 6.875 -10.765625 7.53125 -10.765625 C 8.425781 -10.765625 9.128906 -10.492188 9.640625 -9.953125 C 10.148438 -9.410156 10.40625 -8.644531 10.40625 -7.65625 L 10.40625 0 L 7.296875 0 L 7.296875 -6.765625 C 7.296875 -7.191406 7.265625 -7.53125 7.203125 -7.78125 C 7.148438 -8.03125 7.050781 -8.207031 6.90625 -8.3125 C 6.757812 -8.425781 6.554688 -8.484375 6.296875 -8.484375 C 6.078125 -8.484375 5.863281 -8.429688 5.65625 -8.328125 C 5.457031 -8.234375 5.257812 -8.097656 5.0625 -7.921875 C 4.863281 -7.742188 4.664062 -7.535156 4.46875 -7.296875 L 4.46875 0 Z M 1.375 0 "/></g></g></g><g fill="#3dcfb6" fill-opacity="1"><g transform="translate(175.717116, 312.293211)"><g/></g></g><g fill="#3dcfb6" fill-opacity="1"><g transform="translate(187.487512, 312.293211)"><g><path d="M 6.390625 0.328125 C 5.097656 0.328125 4.007812 0.0546875 3.125 -0.484375 C 2.25 -1.035156 1.582031 -1.84375 1.125 -2.90625 C 0.664062 -3.96875 0.4375 -5.273438 0.4375 -6.828125 C 0.4375 -7.984375 0.597656 -9.003906 0.921875 -9.890625 C 1.242188 -10.773438 1.691406 -11.515625 2.265625 -12.109375 C 2.847656 -12.710938 3.519531 -13.164062 4.28125 -13.46875 C 5.050781 -13.78125 5.878906 -13.9375 6.765625 -13.9375 C 7.753906 -13.9375 8.585938 -13.78125 9.265625 -13.46875 C 9.953125 -13.164062 10.5625 -12.765625 11.09375 -12.265625 L 9.40625 -10.515625 C 8.988281 -10.878906 8.585938 -11.148438 8.203125 -11.328125 C 7.828125 -11.503906 7.398438 -11.59375 6.921875 -11.59375 C 6.460938 -11.59375 6.039062 -11.503906 5.65625 -11.328125 C 5.269531 -11.148438 4.9375 -10.867188 4.65625 -10.484375 C 4.375 -10.097656 4.15625 -9.601562 4 -9 C 3.84375 -8.394531 3.765625 -7.664062 3.765625 -6.8125 C 3.765625 -5.625 3.859375 -4.679688 4.046875 -3.984375 C 4.242188 -3.285156 4.535156 -2.78125 4.921875 -2.46875 C 5.316406 -2.164062 5.816406 -2.015625 6.421875 -2.015625 C 6.734375 -2.015625 7.03125 -2.050781 7.3125 -2.125 C 7.59375 -2.207031 7.859375 -2.3125 8.109375 -2.4375 L 8.109375 -5.546875 L 6.390625 -5.546875 L 6.078125 -7.796875 L 11.140625 -7.796875 L 11.140625 -1.046875 C 10.460938 -0.617188 9.734375 -0.28125 8.953125 -0.03125 C 8.171875 0.207031 7.316406 0.328125 6.390625 0.328125 Z M 6.390625 0.328125 "/></g></g></g><g fill="#3dcfb6" fill-opacity="1"><g transform="translate(199.257908, 312.293211)"><g><path d="M 4.0625 -4.3125 C 4.132812 -3.738281 4.28125 -3.273438 4.5 -2.921875 C 4.726562 -2.578125 5.019531 -2.320312 5.375 -2.15625 C 5.726562 -2 6.125 -1.921875 6.5625 -1.921875 C 7.039062 -1.921875 7.5 -2 7.9375 -2.15625 C 8.382812 -2.3125 8.816406 -2.519531 9.234375 -2.78125 L 10.484375 -1.09375 C 9.992188 -0.675781 9.398438 -0.332031 8.703125 -0.0625 C 8.003906 0.195312 7.207031 0.328125 6.3125 0.328125 C 5.125 0.328125 4.128906 0.09375 3.328125 -0.375 C 2.523438 -0.851562 1.921875 -1.503906 1.515625 -2.328125 C 1.109375 -3.160156 0.90625 -4.117188 0.90625 -5.203125 C 0.90625 -6.222656 1.097656 -7.15625 1.484375 -8 C 1.878906 -8.84375 2.453125 -9.515625 3.203125 -10.015625 C 3.960938 -10.515625 4.890625 -10.765625 5.984375 -10.765625 C 6.984375 -10.765625 7.847656 -10.550781 8.578125 -10.125 C 9.304688 -9.695312 9.867188 -9.082031 10.265625 -8.28125 C 10.671875 -7.488281 10.875 -6.535156 10.875 -5.421875 C 10.875 -5.242188 10.867188 -5.050781 10.859375 -4.84375 C 10.847656 -4.644531 10.832031 -4.46875 10.8125 -4.3125 Z M 5.984375 -8.6875 C 5.429688 -8.6875 4.984375 -8.484375 4.640625 -8.078125 C 4.296875 -7.679688 4.085938 -7.046875 4.015625 -6.171875 L 7.84375 -6.171875 C 7.84375 -6.929688 7.695312 -7.539062 7.40625 -8 C 7.125 -8.457031 6.648438 -8.6875 5.984375 -8.6875 Z M 5.984375 -8.6875 "/></g></g></g><g fill="#3dcfb6" fill-opacity="1"><g transform="translate(211.028305, 312.293211)"><g><path d="M 1.46875 0 L 1.46875 -2.078125 L 2.84375 -2.078125 L 2.84375 -8.359375 L 1.46875 -8.359375 L 1.46875 -10.421875 L 5.203125 -10.421875 L 5.78125 -8.078125 C 6.15625 -8.972656 6.628906 -9.640625 7.203125 -10.078125 C 7.785156 -10.515625 8.492188 -10.734375 9.328125 -10.734375 C 9.679688 -10.734375 9.992188 -10.703125 10.265625 -10.640625 C 10.546875 -10.585938 10.804688 -10.515625 11.046875 -10.421875 L 10.109375 -7.859375 C 9.921875 -7.910156 9.726562 -7.945312 9.53125 -7.96875 C 9.34375 -8 9.132812 -8.015625 8.90625 -8.015625 C 8.226562 -8.015625 7.628906 -7.734375 7.109375 -7.171875 C 6.597656 -6.617188 6.210938 -5.914062 5.953125 -5.0625 L 5.953125 -2.078125 L 8 -2.078125 L 8 0 Z M 8.53125 -6.0625 L 8.53125 -9.109375 L 8.984375 -10.421875 L 11.046875 -10.421875 L 10.46875 -6.0625 Z M 8.53125 -6.0625 "/></g></g></g><g fill="#3dcfb6" fill-opacity="1"><g transform="translate(222.798701, 312.293211)"><g><path d="M 9.078125 -10.765625 C 9.578125 -10.765625 9.984375 -10.660156 10.296875 -10.453125 C 10.617188 -10.242188 10.859375 -9.914062 11.015625 -9.46875 C 11.171875 -9.019531 11.25 -8.4375 11.25 -7.71875 L 11.25 0 L 8.59375 0 L 8.59375 -7.359375 C 8.59375 -7.722656 8.554688 -7.976562 8.484375 -8.125 C 8.421875 -8.28125 8.285156 -8.359375 8.078125 -8.359375 C 7.910156 -8.359375 7.738281 -8.3125 7.5625 -8.21875 C 7.394531 -8.125 7.207031 -7.945312 7 -7.6875 L 7 0 L 4.8125 0 L 4.8125 -7.359375 C 4.8125 -7.722656 4.773438 -7.976562 4.703125 -8.125 C 4.640625 -8.28125 4.503906 -8.359375 4.296875 -8.359375 C 4.128906 -8.359375 3.957031 -8.3125 3.78125 -8.21875 C 3.613281 -8.125 3.425781 -7.945312 3.21875 -7.6875 L 3.21875 0 L 0.515625 0 L 0.515625 -10.421875 L 2.796875 -10.421875 L 3 -9.40625 C 3.332031 -9.851562 3.664062 -10.191406 4 -10.421875 C 4.332031 -10.648438 4.726562 -10.765625 5.1875 -10.765625 C 5.570312 -10.765625 5.90625 -10.664062 6.1875 -10.46875 C 6.46875 -10.269531 6.664062 -9.957031 6.78125 -9.53125 C 7.09375 -9.894531 7.4375 -10.191406 7.8125 -10.421875 C 8.195312 -10.648438 8.617188 -10.765625 9.078125 -10.765625 Z M 9.078125 -10.765625 "/></g></g></g><g fill="#3dcfb6" fill-opacity="1"><g transform="translate(234.569098, 312.293211)"><g><path d="M 10.140625 -3 C 10.140625 -2.601562 10.191406 -2.316406 10.296875 -2.140625 C 10.410156 -1.972656 10.585938 -1.84375 10.828125 -1.75 L 10.1875 0.296875 C 9.570312 0.234375 9.050781 0.0976562 8.625 -0.109375 C 8.207031 -0.328125 7.878906 -0.648438 7.640625 -1.078125 C 7.242188 -0.597656 6.734375 -0.242188 6.109375 -0.015625 C 5.492188 0.210938 4.859375 0.328125 4.203125 0.328125 C 3.128906 0.328125 2.273438 0.0234375 1.640625 -0.578125 C 1.003906 -1.191406 0.6875 -1.976562 0.6875 -2.9375 C 0.6875 -4.070312 1.128906 -4.945312 2.015625 -5.5625 C 2.898438 -6.175781 4.148438 -6.484375 5.765625 -6.484375 L 7.15625 -6.484375 L 7.15625 -6.875 C 7.15625 -7.414062 6.976562 -7.816406 6.625 -8.078125 C 6.28125 -8.347656 5.773438 -8.484375 5.109375 -8.484375 C 4.773438 -8.484375 4.34375 -8.429688 3.8125 -8.328125 C 3.289062 -8.234375 2.769531 -8.097656 2.25 -7.921875 L 1.53125 -9.984375 C 2.207031 -10.242188 2.910156 -10.4375 3.640625 -10.5625 C 4.367188 -10.695312 5.019531 -10.765625 5.59375 -10.765625 C 7.144531 -10.765625 8.289062 -10.445312 9.03125 -9.8125 C 9.769531 -9.1875 10.140625 -8.273438 10.140625 -7.078125 Z M 5.28125 -1.890625 C 5.613281 -1.890625 5.960938 -1.988281 6.328125 -2.1875 C 6.691406 -2.382812 6.96875 -2.664062 7.15625 -3.03125 L 7.15625 -4.71875 L 6.390625 -4.71875 C 5.535156 -4.71875 4.90625 -4.582031 4.5 -4.3125 C 4.09375 -4.050781 3.890625 -3.664062 3.890625 -3.15625 C 3.890625 -2.757812 4.007812 -2.445312 4.25 -2.21875 C 4.5 -2 4.84375 -1.890625 5.28125 -1.890625 Z M 5.28125 -1.890625 "/></g></g></g><g fill="#3dcfb6" fill-opacity="1"><g transform="translate(246.339494, 312.293211)"><g><path d="M 1.375 0 L 1.375 -10.421875 L 4.078125 -10.421875 L 4.296875 -9.21875 C 4.765625 -9.738281 5.253906 -10.125 5.765625 -10.375 C 6.285156 -10.632812 6.875 -10.765625 7.53125 -10.765625 C 8.425781 -10.765625 9.128906 -10.492188 9.640625 -9.953125 C 10.148438 -9.410156 10.40625 -8.644531 10.40625 -7.65625 L 10.40625 0 L 7.296875 0 L 7.296875 -6.765625 C 7.296875 -7.191406 7.265625 -7.53125 7.203125 -7.78125 C 7.148438 -8.03125 7.050781 -8.207031 6.90625 -8.3125 C 6.757812 -8.425781 6.554688 -8.484375 6.296875 -8.484375 C 6.078125 -8.484375 5.863281 -8.429688 5.65625 -8.328125 C 5.457031 -8.234375 5.257812 -8.097656 5.0625 -7.921875 C 4.863281 -7.742188 4.664062 -7.535156 4.46875 -7.296875 L 4.46875 0 Z M 1.375 0 "/></g></g></g><g fill="#3dcfb6" fill-opacity="1"><g transform="translate(258.10989, 312.293211)"><g><path d="M 11.21875 -10.421875 L 7.75 0 C 7.445312 0.925781 7.039062 1.695312 6.53125 2.3125 C 6.019531 2.9375 5.382812 3.421875 4.625 3.765625 C 3.875 4.109375 2.96875 4.304688 1.90625 4.359375 L 1.5625 2.171875 C 2.25 2.085938 2.800781 1.960938 3.21875 1.796875 C 3.644531 1.628906 3.984375 1.398438 4.234375 1.109375 C 4.492188 0.816406 4.722656 0.445312 4.921875 0 L 3.859375 0 L 0.546875 -10.421875 L 3.828125 -10.421875 L 5.84375 -1.984375 L 8.046875 -10.421875 Z M 11.21875 -10.421875 "/></g></g></g></svg>