<svg width="26" height="27" viewBox="0 0 26 27" fill="none" xmlns="http://www.w3.org/2000/svg">
<path d="M12.8667 18.0333C14.4222 18.0333 15.7444 17.5333 16.8333 16.5333C17.9222 15.5333 18.4667 14.3222 18.4667 12.9C18.4667 11.6333 18.0611 10.5611 17.25 9.68333C16.4389 8.80556 15.4556 8.36667 14.3 8.36667C13.2556 8.36667 12.3722 8.7 11.65 9.36667C10.9278 10.0333 10.5667 10.8556 10.5667 11.8333C10.5667 12.2556 10.6389 12.6722 10.7833 13.0833C10.9278 13.4944 11.1778 13.8556 11.5333 14.1667C11.8889 14.4778 12.2444 14.6056 12.6 14.55C12.9556 14.4944 13.2444 14.3444 13.4667 14.1C13.6889 13.8556 13.8167 13.5611 13.85 13.2167C13.8833 12.8722 13.7444 12.5556 13.4333 12.2667C13.3889 12.2222 13.3444 12.1667 13.3 12.1C13.2556 12.0333 13.2333 11.9556 13.2333 11.8667C13.2333 11.6222 13.3333 11.4278 13.5333 11.2833C13.7333 11.1389 13.9889 11.0667 14.3 11.0667C14.7444 11.0667 15.1111 11.25 15.4 11.6167C15.6889 11.9833 15.8333 12.4222 15.8333 12.9333C15.8333 13.6222 15.55 14.2056 14.9833 14.6833C14.4167 15.1611 13.7222 15.4 12.9 15.4C11.8556 15.4 10.9722 14.9778 10.25 14.1333C9.52778 13.2889 9.16667 12.2556 9.16667 11.0333C9.16667 10.6111 9.21667 10.2 9.31667 9.8C9.41667 9.4 9.56667 9.02222 9.76667 8.66667C9.94444 8.33333 10.0333 7.98333 10.0333 7.61667C10.0333 7.25 9.9 6.93333 9.63333 6.66667C9.36667 6.4 9.04444 6.27222 8.66667 6.28333C8.28889 6.29444 8 6.45556 7.8 6.76667C7.35556 7.38889 7.02222 8.05556 6.8 8.76667C6.57778 9.47778 6.46667 10.2222 6.46667 11C6.46667 12.9556 7.08889 14.6167 8.33333 15.9833C9.57778 17.35 11.0889 18.0333 12.8667 18.0333ZM5.83333 26.6667C5.45555 26.6667 5.13889 26.5389 4.88333 26.2833C4.62778 26.0278 4.5 25.7111 4.5 25.3333V20.9333C3.23333 19.7778 2.25 18.4278 1.55 16.8833C0.85 15.3389 0.5 13.7111 0.5 12C0.5 8.66667 1.66667 5.83333 4 3.5C6.33333 1.16667 9.16667 0 12.5 0C15.2778 0 17.7389 0.816667 19.8833 2.45C22.0278 4.08333 23.4222 6.21111 24.0667 8.83333L25.8 15.6667C25.9111 16.0889 25.8333 16.4722 25.5667 16.8167C25.3 17.1611 24.9444 17.3333 24.5 17.3333H21.8333V21.3333C21.8333 22.0667 21.5722 22.6944 21.05 23.2167C20.5278 23.7389 19.9 24 19.1667 24H16.5V25.3333C16.5 25.7111 16.3722 26.0278 16.1167 26.2833C15.8611 26.5389 15.5444 26.6667 15.1667 26.6667H5.83333Z" fill="#3DCFB6"/>
</svg>
