<svg width="20" height="20" viewBox="0 0 20 20" fill="none" xmlns="http://www.w3.org/2000/svg">
<path d="M16.1693 11H1C0.716222 11 0.478667 10.9042 0.287333 10.7127C0.0957776 10.5213 0 10.2838 0 10C0 9.71623 0.0957776 9.47868 0.287333 9.28734C0.478667 9.09579 0.716222 9.00001 1 9.00001H16.1693L9.277 2.10768C9.07878 1.90945 8.98089 1.67745 8.98333 1.41168C8.986 1.1459 9.09067 0.909566 9.29733 0.702677C9.50422 0.509566 9.73844 0.409566 10 0.402677C10.2616 0.395788 10.4958 0.495788 10.7027 0.702677L19.1563 9.15634C19.2812 9.28123 19.3692 9.4129 19.4203 9.55134C19.4717 9.68979 19.4973 9.83934 19.4973 10C19.4973 10.1607 19.4717 10.3102 19.4203 10.4487C19.3692 10.5871 19.2812 10.7188 19.1563 10.8437L10.7027 19.2973C10.518 19.482 10.2893 19.5765 10.0167 19.5807C9.744 19.5849 9.50422 19.4905 9.29733 19.2973C9.09067 19.0905 8.98733 18.8529 8.98733 18.5847C8.98733 18.3162 9.09067 18.0786 9.29733 17.8717L16.1693 11Z" fill="#3DCFB6"/>
</svg>
