<svg width="20" height="20" viewBox="0 0 20 20" fill="none" xmlns="http://www.w3.org/2000/svg">
<path d="M3.83044 11L10.7228 17.8923C10.921 18.0905 11.0189 18.3225 11.0164 18.5883C11.0138 18.8541 10.9091 19.0904 10.7024 19.2973C10.4956 19.4904 10.2613 19.5904 9.99977 19.5973C9.73822 19.6042 9.504 19.5042 9.29711 19.2973L0.843441 10.8437C0.718552 10.7188 0.630552 10.5871 0.579441 10.4487C0.528108 10.3102 0.502441 10.1607 0.502441 9.99999C0.502441 9.83932 0.528108 9.68977 0.579441 9.55132C0.630552 9.41288 0.718552 9.28121 0.843441 9.15632L9.29711 0.702658C9.48178 0.517992 9.71044 0.423547 9.98311 0.419325C10.2558 0.415103 10.4956 0.509547 10.7024 0.702658C10.9091 0.909547 11.0124 1.1471 11.0124 1.41533C11.0124 1.68377 10.9091 1.92143 10.7024 2.12832L3.83044 8.99999H18.9998C19.2836 8.99999 19.5211 9.09577 19.7124 9.28732C19.904 9.47866 19.9998 9.71621 19.9998 9.99999C19.9998 10.2838 19.904 10.5213 19.7124 10.7127C19.5211 10.9042 19.2836 11 18.9998 11H3.83044Z" fill="#3DCFB6"/>
</svg>
