<svg width="19" height="20" viewBox="0 0 19 20" fill="none" xmlns="http://www.w3.org/2000/svg">
<path d="M2.22831 10.6667L9.47931 17.918C9.60931 18.0478 9.67731 18.2008 9.68331 18.377C9.68931 18.553 9.61876 18.7146 9.47165 18.8617C9.32476 19.0034 9.16754 19.0757 8.99998 19.0783C8.83243 19.0808 8.6752 19.0086 8.52831 18.8617L0.420647 10.754C0.304203 10.6376 0.222536 10.5187 0.175647 10.3973C0.128536 10.276 0.10498 10.1436 0.10498 10C0.10498 9.85644 0.128536 9.724 0.175647 9.60267C0.222536 9.48133 0.304203 9.36244 0.420647 9.246L8.52831 1.13833C8.65298 1.01367 8.80465 0.947001 8.98331 0.938334C9.16198 0.92989 9.32476 0.996556 9.47165 1.13833C9.61876 1.28545 9.69231 1.444 9.69231 1.614C9.69231 1.78422 9.61876 1.94278 9.47165 2.08967L2.22831 9.33333H17.6666C17.8564 9.33333 18.015 9.397 18.1423 9.52433C18.2696 9.65167 18.3333 9.81022 18.3333 10C18.3333 10.1898 18.2696 10.3483 18.1423 10.4757C18.015 10.603 17.8564 10.6667 17.6666 10.6667H2.22831Z" fill="white"/>
</svg>
