<svg width="30" height="28" viewBox="0 0 30 28" fill="none" xmlns="http://www.w3.org/2000/svg">
<path d="M13.7491 15.3559L11.4825 13.0336C11.2678 12.804 11.003 12.6893 10.6881 12.6893C10.3732 12.6893 10.0973 12.8004 9.86045 13.0226C9.63068 13.2521 9.51579 13.5261 9.51579 13.8446C9.51579 14.1633 9.63068 14.4374 9.86045 14.6669L12.9715 17.7559C13.1937 17.9781 13.4529 18.0893 13.7491 18.0893C14.0456 18.0893 14.3049 17.9781 14.5271 17.7559L20.4825 11.8226C20.7047 11.6004 20.814 11.3337 20.8105 11.0226C20.8067 10.7115 20.69 10.4448 20.4605 10.2226C20.2382 10.015 19.9733 9.91314 19.6658 9.91692C19.3585 9.9207 19.1011 10.0263 18.8938 10.2336L13.7491 15.3559ZM10.1715 27.1336L8.14912 23.6893L4.17145 22.8669C3.89745 22.8151 3.67157 22.6688 3.49379 22.4279C3.31601 22.1873 3.24934 21.9299 3.29379 21.6559L3.72712 17.7336L1.13812 14.7336C0.945454 14.5336 0.849121 14.2891 0.849121 14.0003C0.849121 13.7114 0.945454 13.4669 1.13812 13.2669L3.72712 10.2893L3.29379 6.36692C3.24934 6.09292 3.31601 5.83548 3.49379 5.59459C3.67157 5.35392 3.89745 5.2077 4.17145 5.15592L8.14912 4.33359L10.1715 0.866922C10.3197 0.622478 10.5271 0.453923 10.7938 0.361256C11.0605 0.268811 11.3271 0.281811 11.5938 0.400255L15.1715 2.02259L18.7491 0.400255C19.0158 0.281811 19.2825 0.265144 19.5491 0.350255C19.8158 0.435366 20.0232 0.600145 20.1715 0.844589L22.2158 4.33359L26.1715 5.15592C26.4455 5.2077 26.6713 5.35392 26.8491 5.59459C27.0269 5.83548 27.0936 6.09292 27.0491 6.36692L26.6158 10.2893L29.2048 13.2669C29.3975 13.4669 29.4938 13.7114 29.4938 14.0003C29.4938 14.2891 29.3975 14.5336 29.2048 14.7336L26.6158 17.7336L27.0491 21.6559C27.0936 21.9299 27.0269 22.1873 26.8491 22.4279C26.6713 22.6688 26.4455 22.8151 26.1715 22.8669L22.2158 23.6893L20.1715 27.1559C20.0232 27.4004 19.8158 27.5651 19.5491 27.6503C19.2825 27.7354 19.0158 27.7187 18.7491 27.6003L15.1715 25.9779L11.5938 27.6003C11.3271 27.7187 11.0605 27.7317 10.7938 27.6393C10.5271 27.5466 10.3197 27.378 10.1715 27.1336Z" fill="#3DCFB6"/>
</svg>
