<svg width="11" height="11" viewBox="0 0 11 11" fill="none" xmlns="http://www.w3.org/2000/svg">
<path d="M9.19835 1.85851L0.921055 10.1279C0.805638 10.2432 0.681471 10.296 0.548555 10.2864C0.415499 10.2768 0.291263 10.2143 0.175846 10.0989C0.0605686 9.98351 0.00292969 9.85719 0.00292969 9.71997C0.00292969 9.58275 0.0605686 9.45643 0.175846 9.34101L8.42439 1.08455H1.24001C1.08654 1.08455 0.95786 1.03303 0.853971 0.929971C0.750221 0.826916 0.698346 0.699277 0.698346 0.547054C0.698346 0.394693 0.750221 0.265665 0.853971 0.159971C0.95786 0.0541373 1.08654 0.0012207 1.24001 0.0012207H9.61168C9.80154 0.0012207 9.96064 0.0653872 10.089 0.193721C10.2174 0.322193 10.2817 0.481291 10.2817 0.671013V9.04289C10.2817 9.19636 10.2302 9.32497 10.1271 9.42872C10.024 9.53261 9.8964 9.58455 9.74418 9.58455C9.59182 9.58455 9.46272 9.53261 9.35689 9.42872C9.25119 9.32497 9.19835 9.19636 9.19835 9.04289V1.85851Z" fill="#3DCFB6"/>
</svg>
