<svg width="19" height="20" viewBox="0 0 19 20" fill="none" xmlns="http://www.w3.org/2000/svg">
<path d="M16.7717 10.6667H1.33341C1.14364 10.6667 0.985081 10.603 0.857748 10.4757C0.730415 10.3484 0.666748 10.1898 0.666748 10C0.666748 9.81025 0.730415 9.65169 0.857748 9.52436C0.985081 9.39702 1.14364 9.33336 1.33341 9.33336H16.7717L9.52075 2.08202C9.39075 1.95225 9.32275 1.79925 9.31675 1.62302C9.31075 1.44702 9.3813 1.28547 9.52842 1.13836C9.6753 0.99658 9.83253 0.924358 10.0001 0.921691C10.1676 0.919246 10.3249 0.991469 10.4717 1.13836L18.5794 9.24602C18.6959 9.36247 18.7775 9.48136 18.8244 9.60269C18.8715 9.72402 18.8951 9.85647 18.8951 10C18.8951 10.1436 18.8715 10.276 18.8244 10.3974C18.7775 10.5187 18.6959 10.6376 18.5794 10.754L10.4717 18.8617C10.3471 18.9864 10.1954 19.053 10.0167 19.0617C9.83808 19.0701 9.6753 19.0035 9.52842 18.8617C9.3813 18.7146 9.30775 18.556 9.30775 18.386C9.30775 18.2158 9.3813 18.0572 9.52842 17.9104L16.7717 10.6667Z" fill="#3DCFB6"/>
</svg>
