<svg width="24" height="24" viewBox="0 0 24 24" fill="none" xmlns="http://www.w3.org/2000/svg">
<path d="M2.00185 0.00422903C2.00185 0.0972677 1.99769 0.160703 2.00185 0.224138C2.16002 1.98341 2.31818 3.74269 2.47219 5.5062C2.68863 8.00132 2.90091 10.4964 3.11735 12.9873C3.36292 15.787 3.61266 18.5824 3.84991 21.382C3.86656 21.585 3.93732 21.6738 4.12462 21.7245C6.7885 22.4688 9.44405 23.2174 12.1079 23.9574C12.2869 24.0082 12.5033 24.0167 12.6823 23.9659C15.3545 23.2216 18.0226 22.4646 20.6947 21.7161C20.8987 21.6569 20.9695 21.5638 20.9861 21.3524C21.0694 20.2951 21.1693 19.2336 21.2608 18.1764C21.4148 16.4255 21.5647 14.6747 21.7187 12.9239C21.8977 10.8686 22.0808 8.81752 22.2598 6.76222C22.393 5.23131 22.5345 3.70463 22.6677 2.17372C22.7301 1.45479 22.7842 0.735851 22.8425 0H2.00185V0.00422903ZM18.8217 6.11095C18.6844 7.65877 18.547 9.21082 18.4096 10.7586C18.2515 12.5391 18.0933 14.3195 17.9351 16.0957C17.8894 16.6074 17.8228 17.1191 17.8103 17.635C17.8019 17.9099 17.6854 17.9818 17.4606 18.0453C15.854 18.4851 14.2515 18.9376 12.649 19.3859C12.5783 19.407 12.5117 19.4324 12.4409 19.4535C12.4159 19.4408 12.391 19.4324 12.3618 19.4197C10.647 18.946 8.93208 18.4682 7.21722 17.9861C7.14646 17.9649 7.05488 17.8507 7.04656 17.7704C6.92585 16.4509 6.81763 15.1315 6.70109 13.7866H9.31918C9.36496 14.3153 9.41491 14.8523 9.45653 15.3937C9.494 15.8927 9.48983 15.8927 9.95185 16.0196C10.7801 16.2437 11.6126 16.4636 12.4409 16.6835L12.4326 16.6624C13.34 16.4171 14.2473 16.176 15.1547 15.9138C15.238 15.8885 15.3337 15.7531 15.3462 15.6601C15.4003 15.2541 15.4294 14.8439 15.4627 14.4379C15.5168 13.7824 15.571 13.1269 15.6292 12.4418H12.4326L12.4409 12.4249C12.4201 12.4249 12.3951 12.4249 12.3743 12.4249H6.58038C6.5013 11.5495 6.42638 10.6825 6.34729 9.7902H12.3785C12.3993 9.7902 12.4243 9.7902 12.4451 9.7902L12.4367 9.77328H15.8623C15.9414 8.86404 16.0205 7.97595 16.0996 7.07094H12.4326L12.4409 7.05402C12.4201 7.05402 12.3951 7.05402 12.3743 7.05402C10.3223 7.05825 8.27028 7.05825 6.21826 7.06248C6.18913 7.06248 6.15999 7.04979 6.10588 7.03287C6.03096 6.17015 5.95187 5.30743 5.87695 4.41933H12.3743C12.3951 4.41933 12.4201 4.41933 12.4409 4.41933L12.4326 4.40242H18.9591C18.9133 4.99448 18.8675 5.55271 18.8217 6.11095Z" fill="#3DCFB6"/>
</svg>
