<svg width="20" height="20" viewBox="0 0 20 20" fill="none" xmlns="http://www.w3.org/2000/svg">
<path d="M0 0C6.67117 0 13.3288 0 20 0C20 6.67117 20 13.3423 20 20C13.3423 20 6.67117 20 0 20C0 13.3153 0 6.65766 0 0ZM17.8933 10.5874C17.4882 9.8582 16.9345 9.35854 16.1377 9.18298C15.5706 9.04794 15.0034 9.04794 14.4362 9.16948C12.5996 9.5476 11.8163 11.7623 13.0047 13.2343C13.4234 13.7475 13.977 14.0581 14.5577 14.3282C15.0709 14.5712 15.5976 14.8008 16.1107 15.0574C16.4619 15.233 16.6104 15.5571 16.5699 15.9487C16.5294 16.3403 16.2593 16.5564 15.9217 16.6779C15.1654 16.948 14.2876 16.7049 13.7745 16.0702C13.6664 15.9352 13.5584 15.7866 13.4504 15.6381C12.9372 15.9352 12.4375 16.2188 11.9379 16.5159C12.2485 17.1236 12.6806 17.6097 13.2748 17.9338C14.2876 18.4875 15.3545 18.5685 16.4483 18.2984C17.1641 18.1229 17.7718 17.7583 18.1499 17.0966C18.8521 15.8406 18.447 14.2741 17.2046 13.5044C16.6509 13.1668 16.0297 12.9372 15.449 12.6401C15.1654 12.4916 14.8683 12.3565 14.6253 12.1675C14.1931 11.8163 14.2741 11.1141 14.7603 10.844C15.233 10.5739 15.8947 10.736 16.2593 11.2086C16.3403 11.3032 16.3943 11.4112 16.4754 11.5192C16.9345 11.2086 17.4072 10.898 17.8933 10.5874ZM5.26671 16.7184C5.5368 17.2991 5.92843 17.7583 6.48211 18.0554C7.19784 18.447 7.98109 18.5145 8.77785 18.393C9.49359 18.2849 10.0878 17.9608 10.4794 17.3126C10.8035 16.7725 10.898 16.1783 10.898 15.5436C10.898 13.4909 10.898 11.4382 10.898 9.38555C10.898 9.33153 10.898 9.26401 10.898 9.19649C10.2633 9.19649 9.65564 9.19649 9.02093 9.19649C9.02093 9.27752 9.02093 9.34504 9.02093 9.42606C9.02093 11.4517 9.02093 13.4639 9.02093 15.4895C9.02093 15.6786 9.00743 15.8812 8.98042 16.0702C8.9264 16.3808 8.76435 16.6104 8.45375 16.7049C7.87306 16.8805 7.40041 16.7049 7.0628 16.2053C6.98177 16.0702 6.90074 15.9352 6.80621 15.8001C6.27954 16.1107 5.77988 16.4078 5.26671 16.7184Z" fill="#3DCFB6"/>
</svg>
