<svg width="60" height="60" viewBox="0 0 60 60" fill="none" xmlns="http://www.w3.org/2000/svg">
<path d="M23.3571 53.2323C19.6425 52.1709 16.3757 50.2166 13.5235 47.4874C12.628 47.8075 11.7159 48.1276 10.7873 48.4308C10.3561 48.5656 9.92498 48.515 9.47724 48.3466C8.68127 48.0433 8.20036 47.4537 7.85212 46.7292C7.37122 45.769 6.75765 44.8929 6.27675 43.9326C5.8456 43.0397 5.21545 42.2647 4.85062 41.3381C4.66821 40.8833 4.18731 40.58 4.18731 40.0072C3.75615 39.2996 4.17073 38.6763 4.41947 38.0529C4.4858 37.8845 4.56871 37.6655 4.71796 37.5981C5.31494 37.3285 5.61344 36.722 6.11092 36.3514C6.34308 36.1829 6.59182 35.9976 6.85715 35.7954C6.47574 33.858 6.14409 31.9206 6.14409 29.9326C6.14409 27.9615 6.49233 26.0578 6.85715 24.1709C6.21042 23.5644 5.61344 22.9747 4.98329 22.4188C4.33655 21.846 3.95515 21.1384 4.03806 20.3971C4.08781 19.9928 4.20389 19.5548 4.40289 19.2178C5.01645 18.2238 5.58027 17.1793 6.17725 16.1685C6.65816 15.3598 7.07273 14.5174 7.60338 13.7256C7.88529 13.3213 8.05112 12.8496 8.33303 12.4284C8.88026 11.6366 9.97473 11.2491 10.8702 11.5187C11.6662 11.7545 12.4124 12.1083 13.225 12.2599C13.3079 12.2768 13.3742 12.3947 13.4571 12.4789C16.326 9.76655 19.5928 7.82912 23.3405 6.70036C23.4898 6.24549 23.5229 5.75692 23.7053 5.2852C23.838 4.93141 23.8048 4.49338 23.8712 4.1059C24.0536 3.09507 24.6672 2.50542 25.546 2.20217C25.8611 2.10108 26.1762 2 26.5576 2C28.8792 2.03369 31.2008 2.03369 33.5224 2C34.1857 2 34.7495 2.26955 35.2802 2.5728C35.7611 2.82551 36.0264 3.36462 36.1591 3.87004C36.3912 4.79663 36.5239 5.74007 36.7063 6.71721C40.4375 7.79543 43.7043 9.73285 46.5565 12.4621C47.452 12.142 48.3641 11.8219 49.2927 11.5187C49.7239 11.3839 50.155 11.4344 50.6028 11.6029C51.3987 11.9061 51.8796 12.4958 52.2279 13.2202C52.7088 14.1805 53.3223 15.0566 53.8032 16.0168C54.2344 16.9097 54.8646 17.6847 55.2294 18.6113C55.4118 19.0662 55.8927 19.3694 55.8927 19.9422C56.3238 20.6498 55.9093 21.2732 55.6605 21.8965C55.5942 22.065 55.5113 22.284 55.362 22.3514C54.7651 22.6209 54.4666 23.2274 53.9691 23.5981C53.7369 23.7665 53.4882 23.9519 53.2228 24.154C53.6043 26.0915 53.9359 28.0289 53.9359 30.0168C53.9359 31.988 53.6374 33.8917 53.2228 35.7786C53.8696 36.3851 54.4666 36.9747 55.0967 37.5307C55.7434 38.1035 56.1248 38.8111 56.0419 39.5523C55.9922 39.9567 55.8927 40.3947 55.6771 40.7316C55.0801 41.7088 54.5163 42.7196 53.9359 43.7136C53.2063 44.9434 52.6093 46.2744 51.7636 47.4368C51.6143 48.077 51.0173 48.1276 50.5862 48.3634C50.1219 48.6161 49.6575 48.5487 49.1435 48.3971C48.3806 48.1781 47.651 47.7906 46.855 47.6895C46.7721 47.6727 46.7058 47.5548 46.6229 47.4705C43.754 50.2166 40.5038 52.1709 36.7063 53.2659C36.5239 54.1757 36.3581 55.1191 36.1591 56.0457C35.9601 56.9555 35.3631 57.5283 34.5174 57.7978C34.2023 57.8989 33.8706 58 33.5058 58C31.1842 57.9663 28.8626 57.9663 26.541 58C25.8777 58 25.3139 57.7304 24.7832 57.4272C24.3023 57.1745 24.0204 56.6354 23.9209 56.13C23.7385 55.136 23.5561 54.2094 23.3571 53.2323ZM24.435 38.3899C24.7666 38.2046 25.1481 38.0866 25.1646 37.6823C25.1978 37.0758 25.2807 36.4525 25.1481 35.8797C24.9159 34.9025 24.5013 33.9591 24.2526 32.9819C24.0868 32.3586 23.7219 31.769 23.7385 31.0951C23.2079 29.7641 22.8762 28.3658 22.4285 27.0181C22.0636 25.9061 21.7983 24.7605 21.4003 23.6655C21.1847 23.059 21.135 22.3851 20.737 21.846C20.7038 21.7954 20.6873 21.7617 20.6873 21.7617C20.2395 21.4585 19.7752 21.5596 19.3772 21.5596C19.1451 21.7786 18.9461 21.9639 18.7636 22.1324C18.7471 22.6715 18.3657 23.0927 18.432 23.6149C17.8516 24.929 17.6028 26.3442 17.1219 27.6919C16.8732 28.3827 16.724 29.0903 16.525 29.7978C16.3426 30.5054 15.9446 31.1456 15.9446 31.9037C15.3144 33.3357 14.9993 34.8688 14.535 36.3682C14.4189 36.7389 14.3526 37.0927 14.5848 37.4464C14.6511 37.5475 14.6179 37.6992 14.6179 37.6823C14.8833 37.9687 15.0823 38.1709 15.2481 38.373C15.5632 38.373 15.8948 38.373 16.2431 38.373C16.4752 38.0698 16.7074 37.7834 16.923 37.497C16.8732 36.5367 17.0722 35.8965 17.5034 34.8688C19.1285 34.8688 20.7536 34.8688 22.3787 34.8688C22.5114 35.4079 22.5777 35.9302 22.7601 36.4188C22.843 36.6209 22.9259 36.8231 22.8928 37.0253C22.843 37.6486 23.042 38.1372 23.7385 38.373C23.9043 38.3899 24.1531 38.3899 24.435 38.3899ZM28.3154 38.3899C28.7631 38.3562 29.2772 38.491 29.642 38.1203C29.7747 37.9519 29.8908 37.7834 30.0566 37.5475C30.0566 35.8628 30.0566 34.0939 30.0566 32.3249C31.2671 32.3249 32.4611 32.2744 33.6385 32.3418C34.3515 32.3755 34.9319 32.1564 35.4958 31.8026C35.7611 31.6342 35.9932 31.3815 36.2254 31.1456C36.839 30.5391 37.1375 29.7978 37.154 28.9218C37.154 27.5403 37.154 26.1757 37.154 24.7942C37.154 24.5921 37.1043 24.373 37.0546 24.1709C36.8721 23.4464 36.4907 22.9073 35.9767 22.4356C35.3797 21.8797 34.6832 21.5427 33.8541 21.5427C31.9968 21.5427 30.1561 21.5427 28.2822 21.5427C28.0998 21.7449 27.9174 21.9471 27.7018 22.1492C27.7018 27.3381 27.7018 32.5608 27.7018 37.8002C27.9174 37.9856 28.1164 38.1877 28.3154 38.3899ZM40.255 38.3899C41.3993 38.3899 42.5601 38.3899 43.7043 38.3899C43.9033 38.1877 44.1023 37.9856 44.3013 37.8002C44.3013 37.4801 44.3013 37.1769 44.3013 36.8568C44.3013 36.8231 44.3013 36.8063 44.3013 36.7894C44.0525 36.3177 43.6711 36.0313 43.1736 35.9807C43.1736 31.9543 43.1736 27.9446 43.1736 24.0193C43.5385 23.8339 43.8535 23.6655 44.2184 23.4633C44.2681 23.0253 44.3013 22.5704 44.3344 22.2503C44.0691 21.9471 43.8867 21.728 43.7374 21.5596C42.5435 21.5596 41.3827 21.5596 40.3545 21.5596C40.0726 21.8123 39.8736 21.9976 39.6249 22.2335C39.6746 22.6378 39.741 23.0927 39.7907 23.4801C40.1887 23.6823 40.5038 23.8508 40.7857 24.0024C40.7857 28.012 40.7857 32.0217 40.7857 35.9976C40.6199 36.0313 40.4375 35.9976 40.3711 36.0818C40.139 36.3177 39.741 36.3851 39.6581 36.7726C39.6581 37.1095 39.6581 37.4464 39.6581 37.7834C39.8571 37.9856 40.056 38.1877 40.255 38.3899Z" fill="rgba(61, 207, 182, 1)"/>
<path d="M21.5086 32.2921C20.5302 32.3258 19.5021 32.3426 18.4739 32.3763C18.4408 32.3763 18.391 32.4437 18.2915 32.528C18.3081 31.4834 18.8885 30.6411 18.9548 29.6808C19.4523 28.8384 19.5021 27.8444 19.8337 26.901C19.9332 27.0021 20.0825 27.1032 20.0825 27.1874C20.099 27.9118 20.5136 28.5352 20.6463 29.2259C20.7458 29.6976 21.0111 30.1525 21.0774 30.6242C21.1438 31.2307 21.5417 31.6856 21.5086 32.2921Z" fill="rgba(61, 207, 182, 1)"/>
<path d="M34.8511 29.0222C34.735 29.2075 34.6355 29.3929 34.5028 29.5613C34.2707 29.8309 33.9722 29.9825 33.5908 29.9657C32.43 29.9488 31.2692 29.9657 30.0752 29.9657C30.0752 27.9608 30.0752 25.956 30.0752 23.9007C31.2857 23.9007 32.5295 23.8838 33.7566 23.9007C34.337 23.9175 34.8345 24.524 34.8511 25.1642C34.8511 26.2256 34.8511 27.287 34.8511 28.3483C34.8511 28.5842 34.8511 28.8032 34.8511 29.0222Z" fill="rgba(61, 207, 182, 1)"/>
</svg>
