
<svg width="26" height="26" viewBox="0 0 26 26" fill="none" xmlns="http://www.w3.org/2000/svg">
<path d="M13 15.1075L2.85402 25.254C2.57702 25.5307 2.22886 25.6724 1.80952 25.679C1.39052 25.6854 1.03602 25.5437 0.746024 25.254C0.456357 24.964 0.311523 24.6127 0.311523 24.2C0.311523 23.7874 0.456357 23.436 0.746024 23.146L10.8925 13L0.746024 2.85403C0.469357 2.57703 0.32769 2.22886 0.321024 1.80952C0.31469 1.39052 0.456357 1.03602 0.746024 0.746024C1.03602 0.456357 1.38736 0.311523 1.80002 0.311523C2.21269 0.311523 2.56402 0.456357 2.85402 0.746024L13 10.8925L23.146 0.746024C23.423 0.469357 23.7712 0.32769 24.1905 0.321024C24.6095 0.31469 24.964 0.456357 25.254 0.746024C25.5437 1.03602 25.6885 1.38736 25.6885 1.80002C25.6885 2.21269 25.5437 2.56403 25.254 2.85403L15.1075 13L25.254 23.146C25.5307 23.423 25.6724 23.7712 25.679 24.1905C25.6854 24.6095 25.5437 24.964 25.254 25.254C24.964 25.5437 24.6127 25.6885 24.2 25.6885C23.7874 25.6885 23.436 25.5437 23.146 25.254L13 15.1075Z" fill="#3DCFB6"/>
</svg>
